<?xml version="1.0" ?><svg id="Layer_1" style="enable-background:new 0 0 512 512;" version="1.1" viewBox="0 0 512 512" xml:space="preserve" xmlns="http://www.w3.org/2000/svg" xmlns:xlink="http://www.w3.org/1999/xlink"><style type="text/css">
	.st0{fill:#AC2743;stroke:#414042;stroke-width:20;stroke-miterlimit:10;}
	.st1{fill:#C13356;}
	.st2{fill:#EF4660;}
	.st3{fill:#8DC63F;stroke:#414042;stroke-width:17;stroke-miterlimit:10;}
	.st4{fill:#414042;}
	.st5{fill:none;stroke:#414042;stroke-width:10;stroke-linecap:round;stroke-linejoin:round;stroke-miterlimit:10;}
	.st6{fill:none;stroke:#414042;stroke-width:20;stroke-linecap:round;stroke-linejoin:round;stroke-miterlimit:10;}
	.st7{fill:#FFFFFF;stroke:#414042;stroke-width:14.4257;stroke-miterlimit:10;}
	.st8{fill:none;stroke:#414042;stroke-width:17;stroke-linecap:round;stroke-linejoin:round;stroke-miterlimit:10;}
</style><circle class="st0" cx="244" cy="264.5" id="XMLID_85_" r="195.1"/><path class="st1" d="M427.5,265.9c0,97.8-55,168.1-154,182c-98.2,13.7-205-84.2-205-182S148.9,79.1,248,79.1  S427.5,168.2,427.5,265.9z" id="XMLID_84_"/><path class="st2" d="M422.5,269.8c0,96.3-55,165.7-154,179.3c-98.2,13.5-205-83-205-179.3S143.9,85.5,243,84.5  C359.5,83.3,422.5,173.4,422.5,269.8z" id="XMLID_83_"/><circle class="st3" cx="266.7" cy="73.8" id="XMLID_82_" r="29.5"/><circle class="st4" cx="246.6" cy="311.2" id="XMLID_76_" r="5"/><circle class="st4" cx="271.7" cy="203.2" id="XMLID_75_" r="5"/><path class="st5" d="M113.7,359.5c0,11.6,7.5,21,16.7,21" id="XMLID_73_"/><circle class="st4" cx="159.6" cy="46.2" id="XMLID_72_" r="5"/><circle class="st4" cx="303.3" cy="41.2" id="XMLID_71_" r="5"/><circle class="st4" cx="396.3" cy="92" id="XMLID_70_" r="5"/><circle class="st4" cx="374.6" cy="29.9" id="XMLID_69_" r="7.7"/><path class="st6" d="M387.3,130.5c28.9-8.7,46.5-6.8,57.9,5.8c29.5,32.6-26,130.8-123.9,219.3S120,489.2,90.5,456.6  c-13.3-14.8-14.7-31.5,2.8-66.1" id="XMLID_109_"/><circle class="st7" cx="266.7" cy="397.7" id="XMLID_81_" r="32.5"/><line class="st8" id="XMLID_74_" x1="301.7" x2="388.9" y1="328.5" y2="235.6"/><path class="st8" d="M105.5,198.7c9.7-46.6,43.3-78.9,75.1-72.3" id="XMLID_77_"/></svg>