<?xml version="1.0" ?><svg data-name="Layer 5" id="Layer_5" viewBox="0 0 32 32" xmlns="http://www.w3.org/2000/svg"><defs><style>.cls-1{fill:#ffbbbc;}.cls-2{fill:#361041;}.cls-3{fill:#f41870;}</style></defs><path class="cls-1" d="M30,16.28A13.84,13.84,0,0,1,15.81,30a14.1,14.1,0,0,1-14-14.19c0-7.59,6-13.3,14-13.3A13.88,13.88,0,0,1,30,16.28Z"/><path class="cls-2" d="M18.66,10.56a6,6,0,0,0-2.74,3.77c-.73-2.21-3-5.51-5.71-4C8,11.64,8.45,15,9.33,16.85a12.8,12.8,0,0,0,3.53,4,15.54,15.54,0,0,0,1.52,1.15c.38.27,1.69,1.52,2.06,1.43.16,0,.51-.57.64-.72.28-.3.56-.6.83-.91.57-.63,1.18-1.27,1.7-1.94,1.62-2.14,3.93-5.49,2.8-8.25C21.82,10.28,19.9,10,18.66,10.56Z"/><path class="cls-2" d="M19.56,5.94c-4.45-1.42-10.16,0-12.82,4A10.91,10.91,0,0,0,8.1,23.36a9.72,9.72,0,0,0,5.2,3,11.42,11.42,0,0,0,6.11,0,9.47,9.47,0,0,0,4.32-3.23,13.26,13.26,0,0,0,2.58-7.92,10.86,10.86,0,0,0-2.46-6.69A9.54,9.54,0,0,0,19.56,5.94Zm6.27,10.5c-.32,2.27-1.1,5.11-2.72,6.81a10.54,10.54,0,0,1-2.26,2.06,16.08,16.08,0,0,1-3.48,1.19,4.61,4.61,0,0,1-1.54-.07c-1-.15-2-.31-3-.55a8.36,8.36,0,0,0-1.24-.43A10.77,10.77,0,0,1,6.2,11.68C7.76,7,14.2,5.09,18.72,6.15a8.69,8.69,0,0,1,5.35,3.49A9.86,9.86,0,0,1,25.83,16.44Z"/><path class="cls-2" d="M25.87,5.68a14,14,0,0,0-5.72-3A15.23,15.23,0,0,0,7.7,4.23,14.51,14.51,0,0,0,2.76,9.08a12.6,12.6,0,0,0-1.51,6.53A16.61,16.61,0,0,0,6.6,27.33a14.28,14.28,0,0,0,7.51,3.13c1.15,0,2.31.2,3.47.1a14.21,14.21,0,0,0,3.74-1,14.27,14.27,0,0,0,6.06-4.34C30.8,21.13,31.17,16,29.56,11A13.39,13.39,0,0,0,25.87,5.68ZM28,21.79a13.3,13.3,0,0,1-2.84,4A13.72,13.72,0,0,1,14,29.28,12.86,12.86,0,0,1,4.8,23.4a13.27,13.27,0,0,1-2-4.56,12.54,12.54,0,0,1-.16-5c.3-2,1-4.52,2.41-5.93,1.09-1.64,3.66-3.11,5.32-3.77a12.87,12.87,0,0,1,8.32-.69,12.9,12.9,0,0,1,7.52,4.45,11.17,11.17,0,0,1,2.05,3.79,10.74,10.74,0,0,1,.69,3c0,1,.15,2,.15,2.94A10.61,10.61,0,0,1,28,21.79Z"/><path class="cls-3" d="M16,17.23c-.63-.05-2.16-7.14-5.17-5.67C7,15,16.16,21.63,16.16,21.63s7.32-8,4.3-9.61S16.6,17.27,16,17.23Z"/></svg>