<?xml version="1.0" ?><svg data-name="Layer 1" id="Layer_1" viewBox="0 0 32 32" xmlns="http://www.w3.org/2000/svg" xmlns:xlink="http://www.w3.org/1999/xlink"><defs><style>.cls-1{fill:url(#linear-gradient);}.cls-2{fill:#1282ff;}</style><linearGradient gradientUnits="userSpaceOnUse" id="linear-gradient" x1="18.5" x2="18.5" y1="25" y2="19"><stop offset="0.36" stop-color="#e2edff"/><stop offset="1" stop-color="#85c7ff"/></linearGradient></defs><title/><path class="cls-1" d="M11,22.8c1.74-2.24,5.56-3.8,10-3.8,6.63,0,6.69,6,0,6Z"/><path class="cls-2" d="M21,18c-4.27,0-8.1,1.35-10.25,3.56C8.41,20.14,7,18.2,7,16a6.07,6.07,0,0,1,2.15-4.46c1.59-1.48,5.33-3.76,13-3.66h1.42l-.2.07a6,6,0,0,0-2.18,1.39l-2.94,2.94,1.41,1.41L26.41,7,19.71.29,18.29,1.71,21,4.42a6,6,0,0,0,2.3,1.43l.07,0H22.09c-6.28,0-11.29,1.41-14.3,4.2A8.12,8.12,0,0,0,5,16c0,5.7,6.88,10,16,10,4.12,0,6-2.07,6-4S25.13,18,21,18Zm0,6a22.22,22.22,0,0,1-8.34-1.49A13.39,13.39,0,0,1,21,20c2.59,0,4,1,4,2S23.6,24,21,24Z"/><path class="cls-2" d="M9,24.87a4.81,4.81,0,0,0,0,.63c0,2.63,2.11,5,5.63,6.38L15.36,30C12.67,29,11,27.31,11,25.56,11,25.54,9,24.87,9,24.87Z"/></svg>