<?xml version="1.0" ?><svg id="art" viewBox="0 0 64 64" xmlns="http://www.w3.org/2000/svg"><defs><style>.cls-1{fill:#ea8039;}.cls-2{fill:#e2762d;}.cls-3{fill:#5df9e6;}.cls-4{fill:#f7ac4b;}.cls-5{fill:#ffd19f;}.cls-6{fill:#041256;}</style></defs><title/><path class="cls-1" d="M36.63,20.59,32,8l-4.61,12.5a48.05,48.05,0,0,1-6.63,12.8,14.13,14.13,0,1,0,23.1.88A69.12,69.12,0,0,1,36.63,20.59Z"/><path class="cls-2" d="M36.65,40.25a4.61,4.61,0,0,0-1.2-3.1,4.53,4.53,0,0,1-.74,2,15.71,15.71,0,0,1-1.56-3L32,33l-1.14,3.1a12.56,12.56,0,0,1-1.56,3h0a4.58,4.58,0,0,1-.75-2A4.62,4.62,0,0,0,32,44.87h.15A4.63,4.63,0,0,0,36.65,40.25Z"/><path class="cls-3" d="M21.68,39a48.35,48.35,0,0,0,6.63-12.8l4.61-12.51,4.63,12.58a68.72,68.72,0,0,0,7.22,13.6,14.39,14.39,0,0,1,1.33,2.59c0-.19,0-.38,0-.58a14,14,0,0,0-2.27-7.67,69.12,69.12,0,0,1-7.23-13.61L32,8l-4.61,12.5a48.05,48.05,0,0,1-6.63,12.8,14.14,14.14,0,0,0-2.52,11.84A14.46,14.46,0,0,0,18.81,47,14,14,0,0,1,21.68,39Z"/><path class="cls-4" d="M21.24,48A14.16,14.16,0,0,1,23.75,36.2a48.68,48.68,0,0,0,6.64-12.8L34,13.52,32,8l-4.61,12.5a48.05,48.05,0,0,1-6.63,12.8,14.14,14.14,0,0,0-2.52,11.84,14,14,0,0,0,5.54,8.24A13.69,13.69,0,0,1,21.24,48Z"/><path class="cls-5" d="M20,47.24A14.13,14.13,0,0,1,22.51,35.4a48.05,48.05,0,0,0,6.63-12.8l4.12-11.17L32,8l-4.61,12.5a48.05,48.05,0,0,1-6.63,12.8,14.14,14.14,0,0,0-2.52,11.84,13.83,13.83,0,0,0,3.82,6.78A13.7,13.7,0,0,1,20,47.24Z"/><path class="cls-4" d="M45.73,38.67A18.69,18.69,0,0,1,18,24.79,18.68,18.68,0,0,0,31.9,56h.2c.27,0,.54,0,.8,0A14,14,0,0,0,45.73,38.67Z"/><path class="cls-4" d="M18.27,38.67A18.69,18.69,0,0,0,46,24.79,18.68,18.68,0,0,1,32.1,56h-.2c-.27,0-.54,0-.8,0A14,14,0,0,1,18.27,38.67Z"/><path class="cls-1" d="M43.86,34.2c-.31-.47-.61-.94-.91-1.42l0,.06a18.61,18.61,0,0,1-24.64,5.83,14.93,14.93,0,0,0-.33,2,11.5,11.5,0,0,0-.07,1.18h0c0,.49,0,1,.08,1.5,0,.21.06.41.1.62s.08.52.13.78A14.12,14.12,0,0,0,31.1,56h.21c.3,0,.6,0,.9,0h.33A14.11,14.11,0,0,0,43.86,34.2Z"/><path class="cls-5" d="M15.54,39.05A18.47,18.47,0,0,1,18.9,28.43,18.39,18.39,0,0,1,18,24.79,18.65,18.65,0,0,0,21.9,53.08,18.63,18.63,0,0,1,15.54,39.05Z"/><path class="cls-3" d="M49.13,39.57a18.61,18.61,0,0,1-2.86,9.91A18.64,18.64,0,0,0,46,24.79a18.74,18.74,0,0,1-.76,3.37A18.56,18.56,0,0,1,49.13,39.57Z"/><path class="cls-4" d="M32.82,46.6,32,44.39l-.81,2.2A8.17,8.17,0,0,1,30,48.84a2.49,2.49,0,1,0,4.07.16A11.74,11.74,0,0,1,32.82,46.6Z"/><path class="cls-6" d="M32.1,57h-.2A19.67,19.67,0,0,1,17.3,24.12l1.46-1.61L19,24.66A17.68,17.68,0,0,0,21.15,31a50.66,50.66,0,0,0,5.3-10.86L32,5.12l5.57,15.13a60.5,60.5,0,0,0,5.37,10.63,17.45,17.45,0,0,0,2-6.22l.27-2.15,1.46,1.61A19.66,19.66,0,0,1,32.56,57H32.1ZM17.46,27.11A17.68,17.68,0,0,0,31.9,55l.6,0A17.8,17.8,0,0,0,49.79,37.3a17.56,17.56,0,0,0-3.25-10.18,19.56,19.56,0,0,1-2.76,6.22l-.85,1.27-.82-1.29a66.55,66.55,0,0,1-6.42-12.38L32,10.91l-3.67,10A49.87,49.87,0,0,1,21.9,33.45l-.8,1.08-.8-1.07A20,20,0,0,1,17.46,27.11Z"/><path class="cls-5" d="M38.9,42.84a18.43,18.43,0,0,0,7.21-1.47,14.89,14.89,0,0,0-.38-2.7,18.61,18.61,0,0,1-19.12-.46A18.57,18.57,0,0,0,38.9,42.84Z"/><path class="cls-6" d="M36.57,41.09a20.43,20.43,0,0,1-9.69-1.89,15.59,15.59,0,0,1-7.36-7h0a1,1,0,0,1,1.79-.9.42.42,0,0,1,0,.1,14.18,14.18,0,0,0,6,6.93A19.94,19.94,0,0,0,36.57,41.09Z"/><path class="cls-6" d="M44.45,32.32a8.57,8.57,0,0,1-2.18,3,12.15,12.15,0,0,1-2.89,1.86,12.29,12.29,0,0,0,2.13-2.51,7,7,0,0,0,1-2.86,1,1,0,0,1,2,.23,1.23,1.23,0,0,1-.08.29Z"/><path class="cls-4" d="M21.9,12a1.36,1.36,0,1,1-1.35-1.36A1.35,1.35,0,0,1,21.9,12Z"/><path class="cls-4" d="M22.56,16.42a1,1,0,1,1-1-1A1,1,0,0,1,22.56,16.42Z"/><path class="cls-4" d="M18.32,17.94a.38.38,0,1,1-.38-.38A.38.38,0,0,1,18.32,17.94Z"/><circle class="cls-4" cx="22.01" cy="22.64" r="0.79"/><path class="cls-4" d="M21.23,20.34a.34.34,0,0,1-.34.34.34.34,0,1,1,0-.68A.34.34,0,0,1,21.23,20.34Z"/><path class="cls-4" d="M24.29,18.63a.32.32,0,1,1-.31-.31A.31.31,0,0,1,24.29,18.63Z"/><circle class="cls-4" cx="42.72" cy="14.62" r="1.28"/><path class="cls-4" d="M43.17,19.82A.87.87,0,1,1,42.3,19,.87.87,0,0,1,43.17,19.82Z"/><path class="cls-4" d="M38.92,17.31a.25.25,0,1,1-.24-.25A.25.25,0,0,1,38.92,17.31Z"/><path class="cls-4" d="M40.09,20.7a.36.36,0,1,1-.36-.36A.36.36,0,0,1,40.09,20.7Z"/><circle class="cls-4" cx="46.13" cy="17.31" r="0.63"/></svg>