<?xml version="1.0" ?><svg id="art" viewBox="0 0 64 64" xmlns="http://www.w3.org/2000/svg"><defs><style>.cls-1{fill:#2c6cb7;}.cls-2{fill:#041256;}.cls-3{fill:#211668;}.cls-4{fill:#5df9e6;}.cls-5{fill:#52a1d1;}.cls-6{fill:#78c4ea;}.cls-7{fill:#e1fffb;}</style></defs><title/><polyline class="cls-1" points="48.25 40.51 53.61 44.13 41.54 42.73"/><path class="cls-2" d="M48.25,40.51a24.74,24.74,0,0,1,3,1.3q1.47.73,2.85,1.56l3,1.82L53.51,45c-1,0-2-.16-3-.27s-2-.27-3-.45-2-.4-3-.65a22.94,22.94,0,0,1-3-.94,23,23,0,0,1,3.08-.24c1,0,2,0,3.06,0s2,.13,3,.25,2,.24,3,.43l-.62,1.67c-.86-.65-1.7-1.34-2.51-2.06A23.28,23.28,0,0,1,48.25,40.51Z"/><line class="cls-3" x1="53.61" x2="41.54" y1="44.13" y2="42.73"/><polyline class="cls-1" points="42.07 42.57 47.43 46.19 35.35 44.78"/><path class="cls-2" d="M42.07,42.57a23.89,23.89,0,0,1,3,1.3q1.47.72,2.85,1.56l3,1.81-3.63-.15c-1,0-2-.15-3-.26s-2-.27-3-.46-2-.39-3-.65a22.94,22.94,0,0,1-3-.94,22.92,22.92,0,0,1,3.08-.23c1,0,2,0,3.06.05s2,.13,3,.24,2,.25,3,.44l-.61,1.66c-.86-.65-1.7-1.33-2.52-2A25.5,25.5,0,0,1,42.07,42.57Z"/><line class="cls-3" x1="47.43" x2="35.36" y1="46.19" y2="44.78"/><polyline class="cls-4" points="35.89 44.62 41.25 48.24 29.17 46.84"/><path class="cls-2" d="M35.89,44.62a25.43,25.43,0,0,1,3,1.3c1,.48,1.92,1,2.85,1.56l3,1.82-3.63-.15c-1,0-2-.16-3-.27s-2-.27-3-.45-2-.4-3-.65a23.45,23.45,0,0,1-2.95-.94,23.22,23.22,0,0,1,3.09-.24c1,0,2,0,3.05,0s2,.13,3,.25,2,.24,3,.43L40.74,49c-.86-.65-1.7-1.34-2.52-2.06A24.28,24.28,0,0,1,35.89,44.62Z"/><line class="cls-3" x1="41.25" x2="29.17" y1="48.24" y2="46.84"/><polyline class="cls-4" points="29.71 46.68 35.07 50.29 22.99 48.89"/><path class="cls-2" d="M29.71,46.68a23.84,23.84,0,0,1,3,1.29c1,.49,1.92,1,2.85,1.57l3,1.81L35,51.2c-1,0-2-.15-3-.26s-2-.27-3-.46-2-.39-3-.65a23.45,23.45,0,0,1-3-.94,23.19,23.19,0,0,1,3.09-.23c1,0,2,0,3.05.05s2,.13,3,.24,2,.25,3,.44l-.61,1.66c-.87-.65-1.7-1.33-2.52-2A24.29,24.29,0,0,1,29.71,46.68Z"/><line class="cls-3" x1="35.07" x2="22.99" y1="50.29" y2="48.89"/><path class="cls-5" d="M9.7,36.69l1.57-.34,5.36-6.55a76.43,76.43,0,0,0,9.86-15.55l1.72-3.63L30,20.22,31.17,19a33.14,33.14,0,0,1,10.32-7.25L44,10.62l-6.21,11,14.09-7.24L41.38,28l2.69-1.2a36.17,36.17,0,0,0,12.22-8.88l.34-.38h0a22.14,22.14,0,0,1-13.77,18l-1.59.63,5.11.23,11-.38L54,37.66A54.24,54.24,0,0,1,36.6,42.88l-1,.12,5.53,2.81L28,46.62l5.18,2.32-10.81.42c-.64,0-1.25-1.77-1.78-1.41l-1.92,1.32c-2,1.37-2.33,1.1-4.74,1.1h0a1.65,1.65,0,0,1-1.65-1.65l-2-2.1L6.62,42.85Z"/><path class="cls-1" d="M21.13,43.34A2.46,2.46,0,0,1,23.39,43,2.49,2.49,0,0,0,25,43h0a10.72,10.72,0,0,0,5.64-4.67l.41-.71-1.7,1.63-1.5.71-1.63.58-2,.08-1.42-.08-1.91.92-4.21,3.08-6.2,2.28,1.79,1.88,1.87-.3Z"/><path class="cls-4" d="M54.18,20a21.94,21.94,0,0,1-9.29,8.6l-1.53.69-5.06,1,1.16-1.44,3.08-2.42L41.38,28l2.69-1.2A35.92,35.92,0,0,0,54.18,20Z"/><path class="cls-6" d="M28.7,29.5a5,5,0,0,0,.62-4.59s-.85,2.78-2.25,3.21l.25-1.56s-2,.88-2,2c0,0-.22-2.78.68-3.93,0,0-3.31,1.87-3,5.12l-.62-1.34s-1.18,1.85-.54,2.94l-.87-.85.44,1.82-1-.36s.06,1,.56,1.29l-3.18,3.25,9-5s3.21.31,4.48-1.34a5.43,5.43,0,0,1-1.92.12l.79-1.72Z"/><path class="cls-4" d="M42.94,37.4l1.58-.63,1-.43.88,0,11-.38-2.84,1.4-6.5.22Z"/><path class="cls-4" d="M32.84,20.25l-1.18,1.22L31.2,19a33.07,33.07,0,0,1,10.29-7.23L44,10.62l-1.52,2.7A33.39,33.39,0,0,0,32.84,20.25Z"/><polygon class="cls-4" points="37.94 44.17 41.16 45.81 40.45 45.85 37.3 44.25 37.94 44.17"/><polygon class="cls-4" points="30.66 47.81 33.18 48.94 32.14 48.98 29.67 47.88 30.66 47.81"/><polygon class="cls-4" points="39.46 22.88 41.14 19.9 51.88 14.38 49.17 17.88 39.46 22.88"/><path class="cls-4" d="M9.7,36.69l1.57-.34,5.36-6.55a76.7,76.7,0,0,0,9.86-15.55l1.72-3.63L28.85,14l-.7,1.46A76.22,76.22,0,0,1,18.3,31.05L12.94,37.6l-1.58.34L8.29,44.1,12,47.88,14,50a1.75,1.75,0,0,0,.05.4h-.07a1.65,1.65,0,0,1-1.65-1.65l-2-2.1L6.62,42.85Z"/><path class="cls-2" d="M15.49,51.39h-.58l-1,0a2.65,2.65,0,0,1-2.61-2.21L5.41,43,9,35.82l1.7-.37,5.13-6.28a75,75,0,0,0,9.73-15.35l3.05-6.4,2,10.71a34,34,0,0,1,10.46-7.29l5.29-2.37L40.31,19.21l15.11-7.78-10.81,14a34.72,34.72,0,0,0,10.93-8.2L58,14.5l-.36,3.11a23.06,23.06,0,0,1-12,17.73l.82,0L62,34.84l-7.51,3.72a55,55,0,0,1-15.53,5l6,3-12.77.79,5.38,2.4-15.09.59c-.85,0-1.35-.67-1.73-1.18l0,0-1.4,1A5.48,5.48,0,0,1,15.49,51.39ZM7.83,42.66l5.45,5.66v.4a.65.65,0,0,0,.65.65l1,0a3.85,3.85,0,0,0,3.15-.94L20,47.13c1.07-.74,1.94.42,2.26.86.08.1.2.26.29.36l6.3-.24-5-2.23L37.43,45l-5.18-2.63,4.23-.52a53.1,53.1,0,0,0,16.28-4.73l-6.35.21-9.82-.43,5.9-2.35A21.08,21.08,0,0,0,55,20.64a36.78,36.78,0,0,1-10.52,7l-6.32,2.81L48.33,17.32,35.28,24l6.36-11.26a31.91,31.91,0,0,0-9.75,6.92l-2.52,2.62-1.58-8.49-.4.85a77.6,77.6,0,0,1-10,15.76l-5.58,6.82-1.44.31Z"/><path class="cls-2" d="M26.56,30.66l-1.28-.22a1.29,1.29,0,0,0-1.12.35l-1.85,1.79v.89H21.18a3.89,3.89,0,0,0,3.67.22l2.08-1A3.05,3.05,0,0,0,28.7,30h0l-1.31.61A1.48,1.48,0,0,1,26.56,30.66Z"/><polygon class="cls-2" points="12.09 40.08 11.34 38.99 9.9 41.69 12.09 40.08"/><path class="cls-4" d="M24.21,32a.72.72,0,1,0,.72-.72A.72.72,0,0,0,24.21,32Z"/><path class="cls-1" d="M24.57,32a.36.36,0,1,0,.36-.36A.36.36,0,0,0,24.57,32Z"/><path class="cls-7" d="M24.82,31.74a.36.36,0,1,0,.36-.36A.36.36,0,0,0,24.82,31.74Z"/><path class="cls-2" d="M10.43,45.35,11,46l-.7-.3,1.69.06.4,0a1.23,1.23,0,0,0,.27,0,1.48,1.48,0,0,0,.54-.17l2.88-1.7L19,42.12l1.45-.87A10.17,10.17,0,0,1,22,40.43a6.51,6.51,0,0,1,1.78-.38,6.91,6.91,0,0,1,.91,0,5.4,5.4,0,0,0,.8,0,5.5,5.5,0,0,0,1.56-.28c.5-.18,1-.44,1.54-.65a7,7,0,0,0,1.47-.76,4.66,4.66,0,0,0,1.14-1.16A4.8,4.8,0,0,0,32,34.05a4.94,4.94,0,0,1-.59,3.31,4.71,4.71,0,0,1-1.12,1.32,7.61,7.61,0,0,1-1.48.9c-.51.26-1,.54-1.53.78a6.39,6.39,0,0,1-1.73.45,6.68,6.68,0,0,1-.89,0,6.81,6.81,0,0,0-.78,0,5,5,0,0,0-1.49.44,8.43,8.43,0,0,0-1.37.84l-1.39,1-2.78,1.93L14,47a3.27,3.27,0,0,1-1,.43,3.72,3.72,0,0,1-.57.08l-.45,0-1.69.06H9.9l-.32-.31L9,46.74a1,1,0,0,1,0-1.42,1,1,0,0,1,1.41,0Z"/><path class="cls-6" d="M31.37,32.31a.32.32,0,0,0,.63,0,.32.32,0,1,0-.63,0Z"/><circle class="cls-6" cx="29.57" cy="34.4" r="0.57"/><path class="cls-6" d="M30.22,33.6a.23.23,0,0,0,.24.23.23.23,0,0,0,.23-.23.23.23,0,0,0-.23-.24A.24.24,0,0,0,30.22,33.6Z"/><path class="cls-6" d="M29.21,33a.27.27,0,1,0,.27-.27A.27.27,0,0,0,29.21,33Z"/><path class="cls-6" d="M32.94,33.11a.14.14,0,0,0,.14.14.13.13,0,0,0,.13-.14.13.13,0,0,0-.13-.13A.13.13,0,0,0,32.94,33.11Z"/><path class="cls-6" d="M26.35,34.56a.19.19,0,1,0,.19-.19A.19.19,0,0,0,26.35,34.56Z"/><circle class="cls-6" cx="26.65" cy="36.1" r="0.31"/><path class="cls-6" d="M23.43,35.83a.27.27,0,0,0,.27.27.27.27,0,1,0,0-.54A.27.27,0,0,0,23.43,35.83Z"/><circle class="cls-6" cx="24.97" cy="35.34" r="0.22"/><path class="cls-6" d="M21.26,36.46a.36.36,0,1,0,.36-.36A.36.36,0,0,0,21.26,36.46Z"/><circle class="cls-6" cx="31.87" cy="27.34" r="0.18"/><circle class="cls-6" cx="26.07" cy="22.91" r="0.28"/><path class="cls-6" d="M33.9,36.67a.26.26,0,1,0,.26-.26A.25.25,0,0,0,33.9,36.67Z"/><polygon class="cls-6" points="19.75 40.13 12.34 44.92 10.94 44.92 12.09 44.38 19.75 40.13"/><path class="cls-4" d="M14.54,13.5a1.22,1.22,0,1,0,1.22-1.22A1.22,1.22,0,0,0,14.54,13.5Z"/><path class="cls-4" d="M19.75,14.32a.26.26,0,0,0,.52,0,.26.26,0,0,0-.52,0Z"/><circle class="cls-4" cx="15.81" cy="18.06" r="1.69"/><circle class="cls-4" cx="11.57" cy="24.31" r="0.56"/><path class="cls-4" d="M14.92,22.22a.41.41,0,0,0,.81,0,.41.41,0,1,0-.81,0Z"/><circle class="cls-4" cx="11.77" cy="20.74" r="0.36"/><path class="cls-4" d="M11.82,28.69a.44.44,0,0,0,.44.43.44.44,0,0,0,0-.87A.44.44,0,0,0,11.82,28.69Z"/><path class="cls-4" d="M14.05,24a.25.25,0,1,0,.49,0,.25.25,0,0,0-.49,0Z"/><circle class="cls-4" cx="10.84" cy="32.19" r="0.19"/><path class="cls-4" d="M8.22,29a.33.33,0,1,0,.33-.32A.33.33,0,0,0,8.22,29Z"/><path class="cls-4" d="M51.68,51.83a1.53,1.53,0,1,0,1.53-1.54A1.53,1.53,0,0,0,51.68,51.83Z"/><path class="cls-4" d="M42.29,54.25a.88.88,0,1,0,.88-.87A.87.87,0,0,0,42.29,54.25Z"/><circle class="cls-4" cx="47.23" cy="51.53" r="0.43"/><circle class="cls-4" cx="49.04" cy="54.59" r="0.34"/><path class="cls-4" d="M49,49.25a.76.76,0,1,0,.76-.76A.76.76,0,0,0,49,49.25Z"/><path class="cls-4" d="M54.74,48.11a.57.57,0,0,0,.57.57.58.58,0,0,0,.57-.57.57.57,0,0,0-.57-.57A.56.56,0,0,0,54.74,48.11Z"/><circle class="cls-4" cx="52.63" cy="56.38" r="0.38"/><path class="cls-4" d="M33.13,54.85a.61.61,0,1,0,.6-.6A.6.6,0,0,0,33.13,54.85Z"/><path class="cls-4" d="M42.67,51.8a.7.7,0,1,0,.7-.7A.7.7,0,0,0,42.67,51.8Z"/><path class="cls-4" d="M27.48,53.26a.76.76,0,1,0,.76-.76A.76.76,0,0,0,27.48,53.26Z"/></svg>