<?xml version="1.0" ?><svg id="TwoTone" viewBox="0 0 64 64" xmlns="http://www.w3.org/2000/svg"><title/><desc/><g data-name="Stroke copy 3" id="Stroke_copy_3"><path d="M17,31.38A22.93,22.93,0,0,1,15,22a23.2,23.2,0,0,1,.92-6.44A22.93,22.93,0,0,0,9,32c0,.43,0,.85,0,1.28Z" style="fill:#cff09e"/><path d="M38,45a23,23,0,0,1-19.59-11l-9,2.14a23,23,0,0,0,44.69,2.25A22.91,22.91,0,0,1,38,45Z" style="fill:#cff09e"/><path d="M21.33,30.35A14.46,14.46,0,0,1,26,30l0,0-6-4,3-9-4.67-3.5A23,23,0,0,0,9,32c0,.43,0,.85,0,1.28Z" style="fill:#a8dba8"/><path d="M22.17,33.19c-.28.05-.56.09-.84.16L9.38,36.19a23,23,0,0,0,9.49,14.69L27,41l-7-6Z" style="fill:#a8dba8"/><path d="M27,19l6,1,3-7-.84-3.78a23,23,0,0,0-8,.29L29,15Z" style="fill:#a8dba8"/><path d="M39,30a14.18,14.18,0,0,1,3.66.37l12.27,2.92c0-.42.06-.84.06-1.27A23,23,0,0,0,43.71,12.2L40,19l-5,6,5,2Z" style="fill:#a8dba8"/><path d="M42.67,33.35A14.16,14.16,0,0,0,38.14,33L48,35l-4,8,5.54,3.88a23.06,23.06,0,0,0,5.08-10.69Z" style="fill:#a8dba8"/><path d="M30,51l-.85,3.82A24.36,24.36,0,0,0,32,55a22.92,22.92,0,0,0,9.73-2.16L37,50Z" style="fill:#a8dba8"/><path d="M61,40,32,38,3,40v4l25-1.73a4,4,0,0,0,7.94,0L61,44Z" style="fill:#79bd9a"/><path d="M32,35v3l26,2V37L42.67,33.35A14.3,14.3,0,0,0,32,35Z" style="fill:#cff09e"/><path d="M21.33,33.35,6,37v3l26-2V35A14.3,14.3,0,0,0,21.33,33.35Z" style="fill:#cff09e"/><path d="M53.36,14.9a1,1,0,0,1-.77-.36A27.06,27.06,0,0,0,22.9,6.59a1,1,0,0,1-.68-1.89,29.1,29.1,0,0,1,31.9,8.55,1,1,0,0,1-.76,1.65Z" style="fill:#57b7eb"/><path d="M59.91,31a1,1,0,0,1-1-.93,26.83,26.83,0,0,0-1.5-7.18,1,1,0,0,1,1.89-.67,29.05,29.05,0,0,1,1.6,7.71A1,1,0,0,1,60,31Z" style="fill:#57b7eb"/><path d="M4.1,31H4a1,1,0,0,1-.92-1.07,29.13,29.13,0,0,1,10.15-20,1,1,0,0,1,1.29,1.53A27.15,27.15,0,0,0,5.09,30.07,1,1,0,0,1,4.1,31Z" style="fill:#57b7eb"/></g><g data-name="Stroke Close copy 3" id="Stroke_Close_copy_3"><path d="M61.07,39,59,38.86V34a1,1,0,0,0-.77-1L56,32.49c0-.16,0-.32,0-.49A24,24,0,0,0,44.22,11.36s0,0,0,0l0,0a23.95,23.95,0,0,0-26.3,1.32l-.06,0A24,24,0,0,0,8,32c0,.17,0,.33,0,.49L5.77,33A1,1,0,0,0,5,34v4.86L2.93,39A1,1,0,0,0,2,40v4a1,1,0,0,0,.32.73,1,1,0,0,0,.75.27l8.41-.58a24,24,0,0,0,6.71,7.18s0,0,0,0l.13.07A23.82,23.82,0,0,0,42,53.81a1,1,0,0,0,.37-.17,24.1,24.1,0,0,0,8-6.16l0,0,0,0a24.75,24.75,0,0,0,2.15-3l8.41.58a1,1,0,0,0,.75-.27A1,1,0,0,0,62,44V40A1,1,0,0,0,61.07,39ZM57,38.72,33,37.07V32.58A13.13,13.13,0,0,1,38.93,31h.15a13.66,13.66,0,0,1,3.36.35L57,34.79ZM26.41,29.07l-5.22-3.48L24,17.32a1,1,0,0,0-.35-1.12l-3.55-2.66a22.17,22.17,0,0,1,6.46-2.85l1.41,4.23-1.81,3.63a1,1,0,0,0,0,.9,1,1,0,0,0,.73.54l6,1H33a1,1,0,0,0,.92-.61l3-7a1.05,1.05,0,0,0,.06-.61l-.52-2.33a22,22,0,0,1,5.89,2.15l-3.18,5.84-4.94,5.92a1,1,0,0,0-.2.89,1,1,0,0,0,.6.68l4.12,1.65L38.28,29A15.13,15.13,0,0,0,32,30.87,15.16,15.16,0,0,0,26.41,29.07ZM54,32v0L42.9,29.38A15.36,15.36,0,0,0,40.39,29L41,27.32a1,1,0,0,0-.58-1.25l-3.72-1.49,4.12-4.94a.91.91,0,0,0,.11-.16l3.19-5.86A22,22,0,0,1,54,32ZM34.34,10.13,35,12.9l-2.56,6-3.89-.64,1.39-2.79a1,1,0,0,0,.06-.77l-1.47-4.4A22.7,22.7,0,0,1,32,10,20.14,20.14,0,0,1,34.34,10.13ZM10,32a22,22,0,0,1,8.35-17.24l3.47,2.61-2.77,8.31a1,1,0,0,0,.4,1.15l3.37,2.25a14.39,14.39,0,0,0-1.72.3L10,32ZM7,34.79l14.56-3.47A13.24,13.24,0,0,1,31,32.58v4.49L7,38.72Zm6.74,9.47,9.84-.68L18.7,49.51A22.13,22.13,0,0,1,13.74,44.26Zm16.63,9.67.46-2,6-.85,2.71,1.62A21.78,21.78,0,0,1,32,54C31.45,54,30.91,54,30.37,53.93Zm11.4-2.23-4.26-2.56a1,1,0,0,0-.65-.13l-7,1a1,1,0,0,0-.84.77l-.64,2.91a22.14,22.14,0,0,1-8-3l6-7.25.88-.06a5,5,0,0,0,9.6,0l6.6.46s0,0,0,0L48,47A22,22,0,0,1,41.77,51.7Zm7.57-6.18-2.09-1.47,3,.21C50,44.69,49.66,45.11,49.34,45.52ZM60,42.93l-7.89-.55h0L36,41.28a1,1,0,0,0-1.06.93,3,3,0,0,1-6,0,1,1,0,0,0-1-.94H28l-2.23.15h0l-13.83,1h0L4,42.93v-2L32,39l28,1.93Z" style="fill:#3b8686"/><path d="M22.9,6.59a27.06,27.06,0,0,1,29.69,8,1,1,0,0,0,.77.36,1,1,0,0,0,.76-1.65A29.1,29.1,0,0,0,22.22,4.7a1,1,0,0,0,.68,1.89Z" style="fill:#3b8686"/><path d="M58.91,30.07a1,1,0,0,0,1,.93H60a1,1,0,0,0,.92-1.07,29.05,29.05,0,0,0-1.6-7.71,1,1,0,0,0-1.89.67A26.83,26.83,0,0,1,58.91,30.07Z" style="fill:#3b8686"/><path d="M4,31H4.1a1,1,0,0,0,1-.93,27.15,27.15,0,0,1,9.45-18.66,1,1,0,0,0-1.29-1.53,29.13,29.13,0,0,0-10.15,20A1,1,0,0,0,4,31Z" style="fill:#3b8686"/></g></svg>