<?xml version="1.0" encoding="UTF-8" standalone="no"?>
<!-- Created with Inkscape (http://www.inkscape.org/) --><svg height="768" id="svg2" inkscape:version="0.43" sodipodi:docbase="C:\Documents and Settings\Jachoo\Desktop" sodipodi:docname="jingjang.svg" sodipodi:version="0.32" version="1.0" width="1024" xmlns="http://www.w3.org/2000/svg" xmlns:cc="http://web.resource.org/cc/" xmlns:dc="http://purl.org/dc/elements/1.1/" xmlns:inkscape="http://www.inkscape.org/namespaces/inkscape" xmlns:rdf="http://www.w3.org/1999/02/22-rdf-syntax-ns#" xmlns:sodipodi="http://inkscape.sourceforge.net/DTD/sodipodi-0.dtd" xmlns:svg="http://www.w3.org/2000/svg">
  <metadata>
    <rdf:RDF xmlns:cc="http://web.resource.org/cc/" xmlns:dc="http://purl.org/dc/elements/1.1/" xmlns:rdf="http://www.w3.org/1999/02/22-rdf-syntax-ns#">
      <cc:Work rdf:about="">
        <dc:title>Jin-Jang</dc:title>
        <dc:description></dc:description>
        <dc:subject>
          <rdf:Bag>
            <rdf:li>sign religion</rdf:li>
          </rdf:Bag>
        </dc:subject>
        <dc:publisher>
          <cc:Agent rdf:about="http://www.openclipart.org/">
            <dc:title>Open Clip Art Library</dc:title>
          </cc:Agent>
        </dc:publisher>
        <dc:creator>
          <cc:Agent>
            <dc:title>jachuisdead</dc:title>
          </cc:Agent>
        </dc:creator>
        <dc:rights>
          <cc:Agent>
            <dc:title>jachuisdead</dc:title>
          </cc:Agent>
        </dc:rights>
        <dc:date></dc:date>
        <dc:format>image/svg+xml</dc:format>
        <dc:type rdf:resource="http://purl.org/dc/dcmitype/StillImage"/>
        <cc:license rdf:resource="http://web.resource.org/cc/PublicDomain"/>
        <dc:language>en</dc:language>
      </cc:Work>
      <cc:License rdf:about="http://web.resource.org/cc/PublicDomain">
        <cc:permits rdf:resource="http://web.resource.org/cc/Reproduction"/>
        <cc:permits rdf:resource="http://web.resource.org/cc/Distribution"/>
        <cc:permits rdf:resource="http://web.resource.org/cc/DerivativeWorks"/>
      </cc:License>
    </rdf:RDF>
  </metadata>
  <defs id="defs4"/>
  <sodipodi:namedview bordercolor="#666666" borderopacity="1.0" id="base" inkscape:current-layer="layer1" inkscape:cx="512" inkscape:cy="384" inkscape:document-units="px" inkscape:pageopacity="0.0" inkscape:pageshadow="2" inkscape:window-height="704" inkscape:window-width="1016" inkscape:window-x="0" inkscape:window-y="0" inkscape:zoom="0.69921875" pagecolor="#ffffff"/>
  <g id="layer1" inkscape:groupmode="layer" inkscape:label="Layer 1">
    <g id="g3981">
      <path d="M 505.43544,244.27755 C 507.39201,244.18554 509.37031,244.1874 511.34169,244.40255 C 516.11854,245.0426 520.86917,245.68546 525.65419,246.2463 C 530.43921,246.80714 535.25862,247.28597 540.09169,247.5588 C 541.06011,247.34051 541.97269,247.24149 542.87294,247.27755 C 543.77319,247.31361 544.64998,247.48304 545.49794,247.71505 C 547.19386,248.17906 548.79094,248.97389 550.37294,249.8713 C 551.95494,250.76871 553.52786,251.7577 555.12294,252.6213 C 556.71802,253.4849 558.35652,254.22747 560.09169,254.59005 C 562.39312,255.15748 564.59549,255.94093 566.74794,256.90255 C 568.90039,257.86417 570.99343,259.00866 573.02919,260.2463 C 577.10071,262.72158 580.98064,265.62601 584.77919,268.4963 C 585.34205,269.19993 585.97826,269.7926 586.65419,270.34005 C 587.33012,270.8875 588.02754,271.36984 588.77919,271.8088 C 590.28248,272.68672 591.91591,273.39124 593.49794,274.1213 C 595.07997,274.85136 596.636,275.62638 597.99794,276.59005 C 598.67891,277.07189 599.30302,277.60328 599.87294,278.21505 C 600.44286,278.82682 600.95143,279.51942 601.37294,280.3088 C 601.66564,281.90864 602.23628,283.31591 603.02919,284.59005 C 603.8221,285.86419 604.82913,286.97942 605.93544,288.02755 C 608.14806,290.12381 610.80882,291.89351 613.15419,293.6838 C 614.62498,296.03341 616.05066,298.54804 617.71669,300.90255 C 618.5497,302.0798 619.44743,303.22836 620.43544,304.27755 C 621.42345,305.32674 622.50289,306.28637 623.71669,307.1213 C 624.68568,307.62567 625.53481,308.18947 626.31044,308.84005 C 627.08607,309.49063 627.79536,310.22498 628.40419,310.9963 C 629.62186,312.53895 630.50681,314.27974 631.21669,316.15255 C 631.92657,318.02536 632.45832,320.02832 632.87294,322.02755 C 633.28756,324.02678 633.60355,326.04316 633.93544,327.96505 C 634.8834,330.81489 635.93561,333.63605 637.06044,336.4338 C 638.18527,339.23155 639.38664,342.00429 640.65419,344.7463 C 643.18929,350.23033 645.97178,355.60085 648.87294,360.84005 C 649.31816,361.93221 649.58959,362.98965 649.71669,364.0588 C 649.84379,365.12795 649.82969,366.19312 649.71669,367.2463 C 649.4907,369.35266 648.84116,371.44275 648.12294,373.52755 C 647.40472,375.61235 646.61543,377.68917 646.02919,379.8088 C 645.73607,380.86862 645.48478,381.94845 645.34169,383.02755 C 645.1986,384.10665 645.16297,385.20336 645.24794,386.3088 C 645.56266,388.65039 645.71294,390.96965 645.71669,393.3088 C 645.72044,395.64795 645.58621,397.9865 645.31044,400.3088 C 645.03467,402.6311 644.61554,404.95527 644.09169,407.2463 C 643.56784,409.53733 642.92592,411.81345 642.18544,414.0588 C 641.09566,416.34259 639.92053,418.65426 639.06044,421.09005 C 638.6304,422.30794 638.29254,423.56508 638.06044,424.84005 C 637.82834,426.11502 637.71967,427.43278 637.77919,428.77755 C 637.89332,429.88792 637.84166,430.92959 637.68544,431.9338 C 637.52922,432.93801 637.27609,433.88951 636.90419,434.8088 C 636.16039,436.64738 635.02648,438.33873 633.74794,439.96505 C 632.4694,441.59137 631.03012,443.16235 629.65419,444.7463 C 628.27826,446.33025 626.97144,447.94108 625.93544,449.65255 C 625.19169,450.4806 624.54792,451.33792 623.96669,452.2463 C 623.38546,453.15468 622.87189,454.09513 622.40419,455.0588 C 621.4688,456.98614 620.71062,458.99812 619.93544,460.9963 C 619.16026,462.99448 618.34858,465.00267 617.34169,466.8713 C 616.83825,467.80561 616.28904,468.69445 615.65419,469.5588 C 615.01934,470.42315 614.31319,471.25821 613.49794,472.02755 C 612.33347,472.98356 611.24563,473.99808 610.21669,475.09005 C 609.18775,476.18202 608.22308,477.35369 607.27919,478.52755 C 605.39141,480.87527 603.59847,483.33293 601.74794,485.6838 C 599.89741,488.03467 597.96511,490.26234 595.74794,492.1838 C 594.63936,493.14453 593.46142,494.03652 592.18544,494.8088 C 590.90946,495.58108 589.55429,496.24779 588.06044,496.77755 C 586.48318,497.05879 584.95511,497.42633 583.46669,497.90255 C 581.97827,498.37877 580.53358,498.9486 579.12294,499.59005 C 576.30166,500.87295 573.60566,502.44966 571.02919,504.21505 C 568.45272,505.98044 565.98052,507.92385 563.56044,509.9338 C 561.14036,511.94375 558.78754,514.04222 556.43544,516.0588 C 554.9619,517.5326 553.33509,518.81568 551.59169,519.8713 C 549.84829,520.92692 547.98449,521.76007 546.06044,522.3088 C 544.13639,522.85753 542.13844,523.10568 540.12294,523.0588 C 539.11519,523.03536 538.10558,522.93528 537.09169,522.7463 C 536.0778,522.55732 535.06931,522.2994 534.06044,521.9338 C 533.08132,521.49469 532.08087,521.16569 531.09169,520.9338 C 530.10251,520.70191 529.1201,520.56595 528.12294,520.4963 C 526.12862,520.357 524.10542,520.4752 522.09169,520.71505 C 520.07796,520.9549 518.07689,521.29958 516.06044,521.5588 C 514.04399,521.81802 512.03167,522.01498 510.02919,521.9338 C 507.10385,522.28154 504.12459,522.68114 501.15419,523.02755 C 498.18379,523.37396 495.21616,523.65313 492.24794,523.7463 C 489.27972,523.83947 486.32297,523.75202 483.40419,523.34005 C 481.9448,523.13407 480.49861,522.84455 479.06044,522.46505 C 477.62227,522.08555 476.19024,521.61206 474.77919,521.02755 C 473.1572,521.11839 471.59573,520.93009 470.09169,520.5588 C 468.58765,520.18751 467.15285,519.64105 465.71669,518.9963 C 462.84437,517.70679 460.05532,516.06027 457.15419,514.8088 C 453.92015,514.3501 450.76216,513.53032 447.71669,512.46505 C 444.67122,511.39978 441.72953,510.09349 438.87294,508.5588 C 436.01635,507.02411 433.25909,505.26952 430.59169,503.40255 C 427.92429,501.53558 425.35084,499.52715 422.87294,497.46505 C 420.36906,495.78841 417.87234,494.07815 415.43544,492.27755 C 412.99854,490.47695 410.63051,488.60486 408.34169,486.6213 C 406.05287,484.63774 403.83884,482.53431 401.77919,480.3088 C 399.71954,478.08329 397.80984,475.7415 396.06044,473.21505 C 395.14799,471.57663 394.09877,470.0109 392.99794,468.4963 C 391.89711,466.9817 390.74643,465.50418 389.59169,464.02755 C 388.43695,462.55092 387.29089,461.08329 386.21669,459.5588 C 385.14249,458.03431 384.13839,456.467 383.27919,454.8088 C 383.38393,453.71568 383.48781,452.55554 383.52919,451.3713 C 383.57057,450.18706 383.55673,448.98145 383.40419,447.8088 C 383.25165,446.63615 382.94372,445.49213 382.46669,444.4338 C 381.98967,443.37547 381.33626,442.40009 380.40419,441.5588 C 379.04586,440.96227 377.95993,440.10163 377.09169,439.09005 C 376.22345,438.07847 375.57576,436.89039 375.06044,435.6213 C 374.54512,434.35221 374.17252,433.02161 373.87294,431.65255 C 373.57336,430.28349 373.34395,428.90152 373.12294,427.59005 C 372.31099,426.1548 371.53313,424.6697 370.84169,423.15255 C 370.15026,421.6354 369.53881,420.08592 369.02919,418.4963 C 368.51957,416.90668 368.10819,415.27396 367.84169,413.6213 C 367.57519,411.96864 367.46002,410.29631 367.49794,408.59005 C 367.43174,401.15795 367.08249,393.66781 366.93544,386.21505 C 366.86192,382.48867 366.85789,378.77318 366.93544,375.0588 C 367.01299,371.34442 367.18637,367.65598 367.52919,363.96505 C 367.58767,362.56354 367.83954,361.23255 368.24794,359.9963 C 368.65634,358.76005 369.22586,357.59344 369.90419,356.4963 C 370.58252,355.39916 371.37968,354.38675 372.24794,353.40255 C 373.11621,352.41835 374.05098,351.48746 375.02919,350.59005 C 375.65252,349.83032 376.15866,349.00917 376.56044,348.1838 C 376.96223,347.35843 377.24681,346.52912 377.46669,345.65255 C 377.90646,343.8994 378.01667,342.05509 377.96669,340.1838 C 377.86673,336.44122 377.12268,332.58078 376.96669,329.0588 C 377.77887,326.65423 378.89477,324.39127 380.21669,322.21505 C 381.53861,320.03883 383.05831,317.93889 384.62294,315.8713 C 386.18757,313.80371 387.80137,311.7625 389.34169,309.6838 C 390.88201,307.6051 392.34271,305.48709 393.59169,303.27755 C 393.88284,302.26347 394.27089,301.30458 394.71669,300.40255 C 395.1625,299.50052 395.67409,298.64742 396.24794,297.84005 C 397.39564,296.2253 398.77904,294.80558 400.27919,293.46505 C 403.27949,290.784 406.77183,288.50934 409.90419,286.09005 C 410.97085,284.72521 412.15148,283.47721 413.40419,282.3088 C 414.6569,281.14039 415.95993,280.05384 417.34169,279.02755 C 420.10521,276.97497 423.09156,275.15006 426.02919,273.34005 C 425.8719,272.89863 425.79224,272.52492 425.81044,272.21505 C 425.82864,271.90518 425.94177,271.647 426.09169,271.4338 C 426.39153,271.00741 426.90255,270.74522 427.46669,270.4963 C 428.03083,270.24738 428.64462,270.00296 429.12294,269.65255 C 429.60126,269.30214 429.95555,268.85217 429.99794,268.1213 C 430.98679,267.68197 431.91818,267.05978 432.84169,266.3713 C 433.7652,265.68282 434.66249,264.91822 435.56044,264.1213 C 437.35635,262.52745 439.15927,260.86725 441.09169,259.6838 C 443.29324,259.43185 445.35387,258.80645 447.37294,257.9963 C 449.39201,257.18615 451.3633,256.1702 453.31044,255.1213 C 455.25758,254.0724 457.19969,252.99576 459.18544,252.02755 C 461.17119,251.05934 463.20678,250.22061 465.34169,249.65255 C 467.32697,249.58375 469.24615,249.3357 471.15419,248.9963 C 473.06223,248.6569 474.94531,248.22624 476.81044,247.71505 C 480.5407,246.69268 484.23328,245.42546 487.99794,244.3088 C 489.92286,244.76044 491.84585,244.93881 493.77919,244.96505 C 495.71253,244.99129 497.6478,244.87003 499.59169,244.71505 C 501.53558,244.56007 503.47887,244.36956 505.43544,244.27755 z " id="path3072" style="opacity:1;fill:#ffffff;fill-opacity:1;stroke:#000000;stroke-width:1;stroke-miterlimit:4;stroke-dasharray:none;stroke-opacity:1"/>
      <path d="M 506.28125 244.21875 C 500.13586 244.4209 494.03981 245.7296 488 244.3125 C 480.47069 246.54581 473.28487 249.38106 465.34375 249.65625 C 456.80412 251.9285 449.89995 258.6797 441.09375 259.6875 C 437.22891 262.05441 433.9554 266.36769 430 268.125 C 429.83046 271.0485 424.77295 269.81241 426.03125 273.34375 C 420.156 276.96379 414.17287 280.63439 409.90625 286.09375 C 403.64154 290.93235 395.9229 295.16863 393.59375 303.28125 C 388.5978 312.1194 380.21746 319.4442 376.96875 329.0625 C 377.28074 336.10647 380.01791 344.51587 375.03125 350.59375 C 371.11842 354.18339 367.76517 358.3627 367.53125 363.96875 C 366.15997 378.73246 367.36759 393.72955 367.5 408.59375 C 367.34832 415.41879 369.8772 421.85274 373.125 427.59375 C 374.00906 432.83963 374.97291 439.17639 380.40625 441.5625 C 384.13455 444.92766 383.7002 450.44004 383.28125 454.8125 C 386.71806 461.44529 392.41269 466.66507 396.0625 473.21875 C 403.06009 483.32453 412.85946 490.76219 422.875 497.46875 C 432.7866 505.71716 444.22009 512.9777 457.15625 514.8125 C 462.95852 517.31543 468.29328 521.3946 474.78125 521.03125 C 486.06965 525.7073 498.32987 523.32845 510.03125 521.9375 C 518.04119 522.26222 526.22957 518.42466 534.0625 521.9375 C 542.13349 524.86233 550.54334 521.95768 556.4375 516.0625 C 565.84591 507.99619 575.44446 499.03119 588.0625 496.78125 C 600.01334 492.54318 604.18426 479.67934 613.5 472.03125 C 620.02204 465.87654 619.98747 456.28062 625.9375 449.65625 C 630.0815 442.81036 638.69431 437.66418 637.78125 428.78125 C 637.54318 423.40217 640.00795 418.63007 642.1875 414.0625 C 645.14937 405.08111 646.50889 395.67888 645.25 386.3125 C 644.57022 377.46901 652.43679 369.58104 648.875 360.84375 C 643.0727 350.36534 637.72935 339.36812 633.9375 327.96875 C 632.60997 320.28122 631.47069 311.15993 623.71875 307.125 C 618.86357 303.78528 616.09783 298.38671 613.15625 293.6875 C 608.46553 290.10694 602.5458 286.71187 601.375 280.3125 C 598.00292 273.99744 589.28414 274.12902 584.78125 268.5 C 577.18417 262.75944 569.29946 256.86347 560.09375 254.59375 C 553.15309 253.14341 547.84111 245.81618 540.09375 247.5625 C 530.42763 247.01684 520.89745 245.68635 511.34375 244.40625 C 509.74201 244.23144 508.15434 244.17568 506.5625 244.21875 C 506.46492 244.22139 506.3788 244.21554 506.28125 244.21875 z M 480.78125 246.96875 C 480.78515 246.96735 480.80862 246.96965 480.8125 246.96875 C 484.72677 246.77348 486.57 254.18311 481.71875 253.875 C 477.71122 255.89685 474.93597 250.17209 478.53125 247.90625 C 479.18581 247.45078 479.88353 246.97968 480.71875 247 C 480.72266 246.99902 480.74608 247.00146 480.75 247 C 480.75393 246.99826 480.77733 246.97058 480.78125 246.96875 z M 506.9375 248.5625 C 506.9403 248.56218 506.96622 248.56239 506.96875 248.5625 C 506.97129 248.56262 506.99719 248.5628 507 248.5625 C 512.11214 248.91624 517.10903 251.19749 522.15625 250.5625 C 531.45056 252.28916 542.55717 249.82602 549.90625 257.1875 C 555.81729 259.53889 562.72244 259.77211 567.4375 264.65625 C 573.70472 267.90995 579.22511 272.3307 584.53125 276.78125 C 589.69713 278.8488 595.61688 281.58493 596.75 287.6875 C 600.13821 294.65884 609.46884 296.24268 611.4375 304.28125 C 615.22846 310.7928 624.78235 313.6398 626.0625 322.0625 C 627.19694 334.83471 633.57233 346.71914 639.65625 357.84375 C 643.96468 363.67725 645.20881 371.95996 640.5625 377.96875 C 637.30334 388.94829 641.17674 400.74797 637.53125 411.6875 C 635.84573 419.00185 631.02925 425.37584 631.5625 433.1875 C 631.23531 438.98014 627.4803 443.38011 623.375 446.96875 C 615.11164 456.34628 613.08668 470.00458 603.59375 478.25 C 597.4676 483.42259 594.66947 492.14819 586.5625 494.6875 C 580.98901 496.60615 575.40449 499.85552 570.375 501.9375 C 563.70648 500.64084 561.42867 509.48037 557.15625 513 C 552.78905 518.684 544.27296 521.03357 538.21875 516.6875 C 536.84442 514.01122 540.27774 512.41444 540.8125 510.625 C 544.11312 507.86142 549.34374 508.77529 551.625 504.53125 C 554.53472 501.4664 559.39246 503.12238 561.625 498.875 C 564.37851 496.11662 566.22712 492.86708 567.71875 489.4375 C 568.1765 489.93853 568.71579 490.34018 569.34375 490.625 C 569.72624 491.01988 570.19477 491.26518 570.65625 491.25 C 570.65959 491.25007 570.68467 491.25002 570.6875 491.25 C 570.69882 491.2465 570.7372 491.22346 570.75 491.21875 C 570.75392 491.21741 570.77771 491.21982 570.78125 491.21875 C 570.78459 491.21885 570.80967 491.21875 570.8125 491.21875 C 570.82488 491.21508 570.86276 491.19208 570.875 491.1875 C 570.87872 491.18619 570.9028 491.18857 570.90625 491.1875 C 570.93514 491.1798 570.99755 491.16628 571.03125 491.15625 C 571.0414 491.15077 571.08231 491.13062 571.09375 491.125 C 571.09659 491.12504 571.12157 491.12483 571.125 491.125 C 571.15716 491.10949 571.21835 491.08111 571.25 491.0625 C 571.27364 491.04794 571.32045 491.01634 571.34375 491 C 571.34613 490.99783 571.37231 490.97147 571.375 490.96875 C 571.38089 490.9624 571.40088 490.94304 571.40625 490.9375 C 571.71804 490.68076 572.01973 490.23755 572.21875 489.59375 C 573.04124 487.96479 574.38373 485.9465 574.9375 484.53125 C 573.22158 484.03416 571.8221 482.72508 570.90625 480.9375 C 570.9069 480.93487 570.90609 480.90886 570.90625 480.90625 C 572.28622 477.01051 573.76352 473.16316 576.03125 469.71875 C 577.48712 467.07876 578.09275 464.1873 578.0625 461.3125 C 579.26321 462.76393 580.22859 464.5984 580.75 466.6875 C 583.47025 471.75751 589.48366 470.36462 590.25 464.8125 C 591.13051 460.26546 590.54389 454.88034 589.71875 450.03125 C 589.70274 449.95355 589.7028 449.85823 589.6875 449.78125 C 588.84551 446.19441 586.00599 443.81309 583.5 444.09375 C 583.142 444.13383 582.77518 444.25321 582.4375 444.40625 C 581.90823 444.31747 581.32622 444.41042 580.90625 444.71875 C 580.90083 444.72421 580.88095 444.74366 580.875 444.75 C 580.87232 444.75276 580.84608 444.77901 580.84375 444.78125 C 580.77159 444.84271 580.68502 444.92491 580.625 445 C 580.57219 445.0688 580.50974 445.17004 580.46875 445.25 C 580.25769 445.68307 580.21618 446.30326 580.5 447.0625 C 580.81714 449.39424 581.43883 453.09666 579.25 453.625 C 578.21615 452.85449 577.18377 452.01033 576.125 451.3125 C 575.6762 444.75076 577.50334 437.17726 574.53125 431.46875 C 575.3221 431.47738 576.08948 431.34415 576.8125 431 C 577.38093 430.96086 577.90643 430.73129 578.1875 430.34375 C 578.1939 430.33229 578.21224 430.29487 578.21875 430.28125 C 578.22859 430.26501 578.26509 430.21197 578.28125 430.1875 C 578.28884 430.17224 578.30552 430.14066 578.3125 430.125 C 578.3123 430.12164 578.31256 430.09659 578.3125 430.09375 C 578.31588 430.0805 578.33757 430.04832 578.34375 430.03125 C 578.34645 430.02338 578.34218 430.00612 578.34375 430 C 578.48394 429.53577 578.39425 428.91717 577.90625 428.15625 C 577.19141 426.47725 576.50598 424.11705 575.78125 422.78125 C 573.73648 424.1447 570.89289 424.04927 568.21875 422.75 C 567.17608 420.26119 566.63226 417.58133 566.21875 415.03125 C 563.671 412.24881 559.03497 410.61969 558.28125 406.625 C 561.28995 405.73451 565.27507 406.39222 568.625 408.875 C 573.94676 411.06217 577.68546 406.21206 574.75 401.4375 C 572.54129 397.36657 568.68661 393.56432 564.96875 390.34375 C 564.91936 390.30388 564.86223 390.25908 564.8125 390.21875 C 564.80716 390.21327 564.78659 390.19293 564.78125 390.1875 C 563.08141 388.89035 561.12756 388.32284 559.4375 388.4375 C 557.79944 388.54862 556.39401 389.31492 555.75 390.625 C 555.26794 390.90241 554.89354 391.37848 554.78125 391.90625 C 554.77312 391.94808 554.75692 392.01483 554.75 392.0625 C 554.7491 392.0701 554.75059 392.08663 554.75 392.09375 C 554.7501 392.0996 554.75016 392.12101 554.75 392.125 C 554.74776 392.23943 554.75942 392.38914 554.78125 392.5 C 554.88546 392.97796 555.22135 393.49177 555.9375 393.90625 C 557.66379 395.5055 560.51094 397.98266 559.15625 399.78125 C 557.20572 399.8748 555.15377 399.84897 553.40625 400.3125 C 553.4032 400.31316 553.37772 400.31233 553.375 400.3125 C 549.23891 397.12588 544.48635 394.46808 543.21875 389.09375 C 543.09829 389.02813 542.96735 388.9627 542.84375 388.90625 C 543.14618 388.48305 543.29501 387.99508 543.21875 387.5625 C 543.21885 387.55901 543.21875 387.53411 543.21875 387.53125 C 543.21294 387.51812 543.19421 387.48158 543.1875 387.46875 C 543.17948 387.44041 543.16629 387.3771 543.15625 387.34375 C 543.15659 387.34065 543.15618 387.31523 543.15625 387.3125 C 543.14823 387.2952 543.13541 387.26808 543.125 387.25 C 543.08088 387.17709 543.01558 387.09258 542.96875 387.03125 C 542.68494 386.67496 542.1577 386.39447 541.34375 386.28125 C 539.60369 385.73158 537.39216 384.72508 535.90625 384.40625 C 535.7572 385.63847 535.18696 386.76555 534.3125 387.75 C 533.24777 387.4842 532.24192 387.03088 531.375 386.15625 C 526.84276 384.55496 522.05787 383.78925 517.3125 382.90625 C 519.04592 382.28966 521.03789 382.02255 523.125 382.21875 C 528.81046 381.3354 529.48305 375.22189 524.5 372.65625 C 520.50294 370.31645 515.25433 369.08105 510.40625 368.25 C 510.39905 368.24871 510.38261 368.25204 510.375 368.25 C 510.34338 368.23963 510.28152 368.199 510.25 368.1875 C 510.24243 368.18504 510.2259 368.18935 510.21875 368.1875 C 510.21598 368.18752 510.19076 368.18736 510.1875 368.1875 C 510.18099 368.18767 510.15886 368.18778 510.15625 368.1875 C 509.63297 368.13089 509.12267 368.12469 508.625 368.15625 C 505.1413 368.37714 502.43026 370.6334 502.65625 373.21875 C 502.39212 373.69709 502.30551 374.30779 502.46875 374.8125 C 502.50434 374.90759 502.57428 375.0401 502.625 375.125 C 502.64027 375.14945 502.67066 375.19504 502.6875 375.21875 C 502.70269 375.23926 502.73204 375.2879 502.75 375.3125 C 502.76619 375.32877 502.8022 375.36413 502.8125 375.375 C 503.15098 375.71783 503.72084 375.95324 504.53125 375.9375 C 506.83608 376.41224 510.54057 377.07238 510.3125 379.3125 C 509.60244 379.78999 508.86988 380.23533 508.15625 380.71875 C 506.71829 380.24754 505.3144 379.72343 503.9375 379.0625 C 501.10142 378.50105 498.4732 377.19843 495.875 375.875 C 496.24667 375.48356 496.4623 375.01524 496.4375 374.5625 C 496.43719 374.55831 496.43754 374.53611 496.4375 374.53125 C 496.43786 374.51788 496.43741 374.48582 496.4375 374.46875 C 496.43737 374.46091 496.43787 374.44355 496.4375 374.4375 C 496.43158 374.40432 496.41498 374.34532 496.40625 374.3125 C 496.39917 374.28795 496.38371 374.24305 496.375 374.21875 C 496.36967 374.20806 496.34935 374.16707 496.34375 374.15625 C 496.29583 374.05304 496.22898 373.93499 496.15625 373.84375 C 495.89101 373.52394 495.43334 373.24282 494.75 373.0625 C 493.08807 372.30882 490.99968 371.0566 489.5625 370.5625 C 489.37706 371.31979 489.03669 372.0221 488.5625 372.65625 C 486.54043 372.08211 484.43535 371.88532 482.15625 372.28125 C 477.78966 371.72364 473.61974 369.61264 470.3125 366.6875 C 472.94189 366.49565 475.97666 367.30686 478.625 369.21875 C 483.97371 371.33913 487.65126 366.42493 484.65625 361.6875 C 482.39673 357.64455 478.47664 353.92376 474.71875 350.75 C 474.67578 350.71315 474.60538 350.63809 474.5625 350.59375 C 474.55862 350.59007 474.53511 350.56594 474.53125 350.5625 C 472.92091 349.36525 471.08372 348.82498 469.46875 348.875 C 467.69493 348.92994 466.19865 349.72328 465.53125 351.125 C 465.03593 351.41838 464.62272 351.91702 464.53125 352.46875 C 464.52093 352.55986 464.52707 352.69099 464.53125 352.78125 C 464.53117 352.78409 464.53126 352.80982 464.53125 352.8125 C 464.54468 352.93663 464.58171 353.09956 464.625 353.21875 C 464.67382 353.34518 464.7554 353.50096 464.84375 353.625 C 465.04096 353.89148 465.33784 354.17455 465.75 354.40625 C 467.49618 355.98377 470.36331 358.40334 469.03125 360.21875 C 468.06155 360.27743 467.06681 360.30065 466.09375 360.375 C 465.35393 357.33568 465.04609 354.12009 461.0625 354 C 458.05725 353.58739 455.94249 351.94553 454.4375 349.6875 C 456.16644 350.00736 457.8131 350.04177 459.21875 349.21875 C 459.78268 349.13111 460.28247 348.85078 460.53125 348.4375 C 460.55197 348.40146 460.57682 348.3506 460.59375 348.3125 C 460.6036 348.289 460.61657 348.24304 460.625 348.21875 C 460.6356 348.18599 460.64829 348.12791 460.65625 348.09375 C 460.66444 348.05492 460.68062 347.98582 460.6875 347.9375 C 460.6875 347.93475 460.68759 347.90925 460.6875 347.90625 C 460.71572 347.4631 460.54351 346.90656 460.0625 346.28125 C 459.20702 344.66935 458.30482 342.39408 457.46875 341.125 C 455.64849 342.57761 453.00701 342.79485 450.375 341.90625 C 450.37486 341.89761 450.3751 341.88364 450.375 341.875 C 450.36292 340.87248 450.58041 339.87075 451.03125 338.90625 C 449.00885 335.30737 443.98443 332.39571 445.40625 327.53125 C 445.3671 327.32702 445.32323 327.11222 445.28125 326.90625 C 448.50179 327.52731 451.83739 330.31854 453.46875 334.46875 C 456.82303 339.14352 462.58454 336.97961 462.625 331.375 C 462.90894 326.75218 461.66526 321.51379 460.21875 316.8125 C 460.19107 316.73253 460.15457 316.64099 460.125 316.5625 C 458.91819 313.36126 456.1324 311.40422 453.78125 311.625 C 453.23868 311.67594 452.72251 311.863 452.25 312.15625 C 451.65489 312.13467 451.02873 312.36853 450.65625 312.8125 C 450.65037 312.81978 450.63074 312.83636 450.625 312.84375 C 450.60873 312.86772 450.57437 312.91953 450.5625 312.9375 C 450.53686 312.97801 450.49056 313.05027 450.46875 313.09375 C 450.24189 313.56967 450.26021 314.22568 450.6875 315.03125 C 451.30408 317.30226 452.38317 320.91123 450.28125 321.71875 C 448.04455 320.46605 445.76076 318.92457 443.5 318.8125 C 442.60006 313.94017 442.42283 309.02342 445.4375 304.78125 C 446.61221 305.76084 447.86978 306.46598 449.3125 306.5 C 449.83749 306.72139 450.38687 306.75039 450.8125 306.53125 C 450.82358 306.52524 450.85885 306.50812 450.875 306.5 C 450.91007 306.47604 450.97053 306.42924 451 306.40625 C 451.00623 306.40118 451.02479 306.3807 451.03125 306.375 C 451.0709 306.33781 451.12008 306.28989 451.15625 306.25 C 451.1673 306.2392 451.20782 306.19842 451.21875 306.1875 C 451.22429 306.18038 451.2446 306.16407 451.25 306.15625 C 451.26045 306.14007 451.27164 306.10853 451.28125 306.09375 C 451.30319 306.0585 451.35092 305.98157 451.375 305.9375 C 451.54279 305.58316 451.62804 305.07513 451.5625 304.4375 C 451.68163 302.61656 452.10698 300.23783 452.0625 298.71875 C 449.94232 298.97497 447.80043 297.98216 446.09375 296.15625 C 446.0908 296.15355 446.06648 296.128 446.0625 296.125 C 446.33795 292.90365 447.07227 289.83028 449.375 287.25 C 450.52813 284.49701 451.39644 281.5442 452.4375 278.6875 C 453.03023 280.88842 453.02653 283.47869 452.21875 286.0625 C 451.90168 291.80745 457.73637 293.71632 461.28125 289.375 C 464.40037 285.95123 466.71117 281.06967 468.53125 276.5 C 468.5491 276.45022 468.57342 276.38761 468.59375 276.34375 C 468.59653 276.3386 468.62199 276.31794 468.625 276.3125 C 468.62631 276.30981 468.6239 276.28386 468.625 276.28125 C 469.93763 272.28041 468.19388 268.26744 465.25 267.90625 C 464.85172 267.56128 464.32294 267.34022 463.8125 267.375 C 463.72975 267.3848 463.60905 267.41748 463.53125 267.4375 C 463.4991 267.44643 463.44511 267.45873 463.40625 267.46875 C 463.37754 267.47675 463.33586 267.48989 463.3125 267.5 C 463.30318 267.50496 463.26663 267.52281 463.25 267.53125 C 463.22183 267.54903 463.17768 267.58121 463.15625 267.59375 C 463.13071 267.60939 463.09112 267.63675 463.0625 267.65625 C 463.02429 267.68325 462.96934 267.72259 462.9375 267.75 C 462.88233 267.79943 462.80098 267.87748 462.75 267.9375 C 462.51995 268.21897 462.32072 268.62559 462.21875 269.15625 C 461.2755 271.31215 459.86261 274.81347 457.71875 274.125 C 457.2833 273.04337 456.87915 271.90165 456.40625 270.84375 C 456.4064 270.84115 456.40566 270.8151 456.40625 270.8125 C 457.26678 269.67709 458.28304 268.64267 459.46875 267.71875 C 462.61073 262.45393 469.57424 263.53744 473.6875 259.34375 C 481.11045 255.45542 489.70369 254.13536 497.71875 251.53125 C 501.43128 251.59033 503.70781 249.49087 506.9375 248.5625 z M 475.375 253.40625 C 475.37773 253.40593 475.40369 253.40612 475.40625 253.40625 C 475.40881 253.40637 475.43477 253.40659 475.4375 253.40625 C 474.60418 254.71874 473.77083 256.03125 472.9375 257.34375 C 472.41899 260.3717 468.07367 260.82837 466.46875 259.0625 C 465.91845 258.43755 465.69137 257.53471 466.09375 256.375 C 468.46747 253.90923 472.35063 254.38089 475.375 253.40625 z M 443.15625 262.96875 C 444.88076 263.18283 446.61507 263.84893 448.40625 264 C 447.03898 265.958 446.22135 268.76807 444.71875 270.71875 C 443.1161 271.17797 441.21102 270.74259 439.84375 269.84375 C 439.85104 267.27474 442.34982 265.4034 443.15625 262.96875 z M 451.46875 266.1875 C 451.47153 266.18755 451.49679 266.18711 451.5 266.1875 C 451.51067 266.18757 451.55181 266.18724 451.5625 266.1875 C 452.04688 266.13291 452.5577 266.3724 452.96875 266.78125 C 454.44634 267.41853 455.39766 268.74846 456.15625 270.3125 C 454.36404 272.4992 453.15094 275.04381 452.125 277.71875 C 451.23624 275.33099 449.59472 273.53351 447.5 272.96875 C 448.02732 271.54343 449.33298 269.48774 450.125 267.84375 C 450.27894 267.31084 450.5093 266.89328 450.75 266.625 C 450.75808 266.61634 450.77311 266.60212 450.78125 266.59375 C 450.79219 266.5829 450.82751 266.54735 450.84375 266.53125 C 450.84886 266.52671 450.86966 266.50449 450.875 266.5 C 450.95255 266.43795 451.04898 266.38618 451.125 266.34375 C 451.14647 266.32997 451.19711 266.29405 451.21875 266.28125 C 451.23084 266.27607 451.26389 266.25543 451.28125 266.25 C 451.28929 266.24747 451.30639 266.25217 451.3125 266.25 C 451.34516 266.23914 451.40448 266.2267 451.4375 266.21875 C 451.44023 266.21596 451.46554 266.19101 451.46875 266.1875 z M 459.25 274.5 C 459.27355 274.49514 459.28864 274.50374 459.3125 274.5 C 459.31866 274.49903 459.33739 274.50046 459.34375 274.5 C 459.35025 274.49993 459.3684 274.49981 459.375 274.5 C 459.38829 274.50066 459.42433 274.49953 459.4375 274.5 C 459.44398 274.5 459.46243 274.50036 459.46875 274.5 C 459.53527 274.49624 459.61977 274.49103 459.6875 274.5 C 459.76525 274.5118 459.85576 274.54293 459.9375 274.5625 C 462.43431 274.83415 465.23268 276.6719 464.53125 280.625 C 464.47422 280.93666 464.41107 281.25096 464.3125 281.5625 C 464.26771 281.7041 464.21773 281.83636 464.15625 281.96875 C 461.63958 286.80135 455.68321 284.47943 456.78125 279.1875 C 456.88101 277.3203 457.76612 274.80631 459.25 274.5 z M 511.625 282.59375 C 511.60159 282.59573 511.55463 282.62137 511.53125 282.625 C 511.52346 282.62641 511.50778 282.62338 511.5 282.625 C 511.49464 282.63073 511.47411 282.65048 511.46875 282.65625 C 502.06393 285.38186 493.03785 289.5133 484.4375 294 C 479.70723 299.24635 475.86491 305.97641 474.1875 312.65625 C 474.97281 319.24984 480.18864 324.44929 481.59375 330.875 C 486.40756 337.60107 495.26713 339.13199 502.6875 341.125 C 508.67101 340.20624 514.04082 335.46375 520.4375 337.15625 C 527.44392 335.96468 529.61694 328.44172 532 322.90625 C 535.72663 317.88995 539.0394 309.93301 533.25 305.0625 C 529.15189 300.59766 529.91958 292.61345 523.625 290.375 C 519.32093 288.73287 516.17267 284.71149 512.25 282.65625 C 512.04727 282.63536 511.82797 282.5809 511.625 282.59375 z M 437.53125 284.4375 C 437.59114 284.43019 437.65872 284.44226 437.71875 284.4375 C 437.82988 284.42868 437.95124 284.43764 438.0625 284.4375 C 439.97367 284.43497 441.88216 285.7058 442.78125 288.34375 C 443.00569 291.12165 444.02924 293.56971 445.46875 295.40625 C 445.46822 295.40949 445.46888 295.43474 445.46875 295.4375 C 445.14872 298.37426 445.26889 301.44271 444.9375 304.34375 C 443.97793 303.47014 443.07497 302.45438 442.15625 301.5 C 439.91053 301.66397 439.91152 305.39774 439.84375 307.75 C 439.99008 308.49568 439.86794 309.07845 439.625 309.46875 C 439.52531 309.62192 439.38794 309.77327 439.25 309.875 C 439.22672 309.89149 439.18036 309.92237 439.15625 309.9375 C 439.12278 309.95577 439.06082 309.98499 439.03125 310 C 438.57093 310.2233 437.99845 310.2333 437.5 310.0625 C 434.63491 310.82941 431.49898 307.7638 431.21875 303.5625 C 431.21319 303.47881 431.22207 303.39704 431.21875 303.3125 C 431.19621 298.39376 431.51406 292.99854 433.125 288.65625 C 433.90995 286.1288 435.67476 284.66399 437.53125 284.4375 z M 436.53125 292.46875 C 434.92886 292.72454 433.48865 294.12845 433.25 296.59375 C 433.24254 296.73953 433.23855 296.91438 433.25 297.0625 C 433.2752 297.38828 433.3425 297.68963 433.40625 298 C 434.23538 301.92831 437.5205 302.58885 439.9375 301.90625 C 441.87205 301.61658 441.82061 298.43546 441.125 296.40625 C 440.62874 293.66402 438.68066 292.34534 436.84375 292.46875 C 436.83701 292.4692 436.8191 292.46866 436.8125 292.46875 C 436.78653 292.46814 436.74465 292.46874 436.71875 292.46875 C 436.71218 292.46908 436.69421 292.46799 436.6875 292.46875 C 436.63551 292.47465 436.58294 292.4605 436.53125 292.46875 z M 458.75 298.59375 C 458.71372 298.60058 458.66192 298.62226 458.625 298.625 C 457.49718 298.70869 456.3625 299.0769 455.5 299.75 C 454.83671 302.12128 455.1288 305.07882 454.59375 307.40625 C 456.31125 306.87591 458.13321 306.79068 459.8125 306.34375 C 459.64905 303.78421 461.29852 301.13501 460.34375 298.75 C 459.8612 298.65321 459.3574 298.57704 458.84375 298.59375 C 458.81623 298.59465 458.77722 298.589 458.75 298.59375 z M 442.59375 318.8125 C 442.64262 318.80546 442.70152 318.81734 442.75 318.8125 C 442.75539 318.81196 442.77607 318.81246 442.78125 318.8125 C 442.78637 318.81275 442.80731 318.81242 442.8125 318.8125 C 443.3115 321.52327 444.03138 324.23915 444.5625 326.8125 C 443.52568 326.71782 442.51541 326.84482 441.59375 327.25 C 441.11111 325.80894 440.81975 323.3711 440.40625 321.59375 C 440.15881 321.00245 440.0983 320.51274 440.15625 320.125 C 440.16948 320.04651 440.19526 319.94517 440.21875 319.875 C 440.23183 319.84527 440.26684 319.77857 440.28125 319.75 C 440.3047 319.701 440.34576 319.61223 440.375 319.5625 C 440.40612 319.51842 440.46224 319.44834 440.5 319.40625 C 440.50538 319.40084 440.52528 319.38044 440.53125 319.375 C 440.5698 319.34244 440.61962 319.30904 440.65625 319.28125 C 440.99644 319.03325 441.47669 318.91679 441.96875 318.96875 C 442.17774 318.91083 442.38199 318.84302 442.59375 318.8125 z M 436.65625 319.65625 C 436.81839 322.03888 437.94788 324.75698 438 327.21875 C 437.03921 328.58119 435.28499 329.4682 433.65625 329.625 C 432.0515 327.61885 432.83541 324.58991 431.9375 322.1875 C 433.41531 321.27325 435.16601 320.66139 436.65625 319.65625 z M 454.875 319.71875 C 454.90533 319.71548 454.93835 319.72143 454.96875 319.71875 C 454.98496 319.71732 455.01572 319.71878 455.03125 319.71875 C 455.06965 319.71967 455.11551 319.72069 455.15625 319.71875 C 456.7833 319.64101 458.47919 320.3552 459.65625 322.5 C 459.80718 322.77858 459.97525 323.07049 460.09375 323.375 C 460.14761 323.51342 460.18366 323.67081 460.21875 323.8125 C 461.28735 329.15534 455.18059 331.09265 452.71875 326.28125 C 451.46511 324.54053 450.51357 321.52518 452.28125 320.6875 C 453.0318 320.2073 453.93463 319.81999 454.875 319.71875 z M 440.125 335.6875 C 440.17755 335.6811 440.22965 335.68854 440.28125 335.6875 C 441.49892 335.66276 442.82962 336.1517 444.125 337.21875 C 445.67312 339.32479 447.67089 340.82073 449.71875 341.65625 C 449.65744 344.06212 450.83244 346.44516 452.8125 348.0625 C 453.06687 348.57466 453.35539 349.06361 453.65625 349.53125 C 452.60675 349.29453 451.54554 348.98702 450.5 348.71875 C 448.67549 350.03833 450.66537 353.2443 451.84375 355.28125 C 452.45187 355.93791 452.61674 356.55009 452.53125 357.0625 C 452.51685 357.13927 452.4945 357.24054 452.46875 357.3125 C 452.46617 357.31929 452.47124 357.33576 452.46875 357.34375 C 452.46623 357.35211 452.44018 357.36709 452.4375 357.375 C 452.4361 357.37869 452.43898 357.40293 452.4375 357.40625 C 452.41408 357.44968 452.36507 357.52584 452.34375 357.5625 C 452.07253 358.01055 451.58438 358.35033 451.0625 358.46875 C 449.02784 360.62676 444.75858 359.64602 442.3125 356.21875 C 442.26379 356.15047 442.20349 356.0702 442.15625 356 C 439.55242 351.82692 437.00489 347.07224 436.09375 342.53125 C 435.13789 338.82102 437.16484 335.97356 439.96875 335.71875 C 440.01945 335.71415 440.07245 335.6939 440.125 335.6875 z M 464.53125 336.8125 C 462.9972 337.38173 461.51675 338.65548 460.9375 340.21875 C 461.61923 342.58479 463.41972 344.92614 464.1875 347.1875 C 465.3701 345.83377 466.89984 344.82519 468.09375 343.5625 C 466.60971 341.47071 466.59684 338.34 464.53125 336.8125 z M 443.1875 343.125 C 443.13431 343.13141 443.08062 343.15151 443.03125 343.15625 C 440.57592 343.39183 438.78857 345.9905 440.375 349.21875 C 440.42054 349.30611 440.48182 349.43821 440.53125 349.53125 C 440.53969 349.54635 440.55359 349.57969 440.5625 349.59375 C 440.568 349.59917 440.5882 349.61965 440.59375 349.625 C 440.78639 349.88893 441.03266 350.11317 441.25 350.34375 C 444.01964 353.25033 447.14602 352.06958 448.84375 350.21875 C 450.33748 348.95574 448.62688 346.26724 446.96875 344.90625 C 445.83669 343.64709 444.53289 343.10478 443.34375 343.125 C 443.29337 343.12586 443.24069 343.11859 443.1875 343.125 z M 474.28125 355.0625 C 474.29729 355.05921 474.32796 355.06512 474.34375 355.0625 C 474.35146 355.06155 474.36755 355.06296 474.375 355.0625 C 475.26965 355.00728 476.25866 355.25392 477.34375 355.84375 C 477.62129 355.99655 477.92323 356.15158 478.1875 356.34375 C 478.30764 356.43111 478.42515 356.52476 478.53125 356.625 C 482.31793 360.54277 478.23419 365.46766 473.5625 362.75 C 471.56697 361.96294 469.1217 359.9414 470.15625 358.28125 C 470.8607 356.74787 472.26401 355.29673 474.1875 355.09375 C 474.19484 355.09298 474.21112 355.09493 474.21875 355.09375 C 474.23442 355.09082 474.26521 355.06579 474.28125 355.0625 z M 465.15625 360.4375 C 465.2148 360.43058 465.28491 360.44388 465.34375 360.4375 C 465.34649 360.43738 465.37245 360.43746 465.375 360.4375 C 465.37979 360.43782 465.40114 360.43741 465.40625 360.4375 C 465.68097 361.5646 466.02283 362.6569 466.625 363.5625 C 467.51314 364.70345 468.51583 365.80209 469.625 366.78125 C 467.53042 367.08352 465.74927 368.04 464.71875 369.59375 C 463.53384 368.64213 461.99599 366.7407 460.6875 365.46875 C 460.21387 365.14229 459.89322 364.79206 459.71875 364.46875 C 459.68538 364.4042 459.648 364.3136 459.625 364.25 C 459.62327 364.2449 459.62728 364.2246 459.625 364.21875 C 459.61162 364.18663 459.57435 364.12617 459.5625 364.09375 C 459.56252 364.091 459.56229 364.06553 459.5625 364.0625 C 459.55494 364.02251 459.53813 363.95382 459.53125 363.90625 C 459.53124 363.90349 459.53117 363.87804 459.53125 363.875 C 459.52984 363.84031 459.52976 363.78413 459.53125 363.75 C 459.53142 363.74735 459.5314 363.72514 459.53125 363.71875 C 459.53188 363.7154 459.53021 363.69122 459.53125 363.6875 C 459.53394 363.67953 459.55929 363.66464 459.5625 363.65625 C 459.56391 363.65228 459.56136 363.6287 459.5625 363.625 C 459.56249 363.62219 459.56263 363.59696 459.5625 363.59375 C 459.65602 363.10632 460.03557 362.67111 460.5625 362.40625 C 461.68268 361.15324 463.34126 360.65191 465.15625 360.4375 z M 492.5 362.8125 C 491.6331 364.20025 491.25373 366.12718 491.75 367.71875 C 493.735 369.17566 496.57331 369.92851 498.5625 371.25 C 498.67196 369.45578 499.26349 367.72901 499.4375 366 C 496.98478 365.25026 495.06848 362.7602 492.5 362.8125 z M 456.46875 365.84375 C 457.89287 367.76079 460.31318 369.45691 461.6875 371.5 C 461.61546 373.16558 460.59816 374.83156 459.3125 375.84375 C 456.87807 375.02313 455.89765 372.06731 453.84375 370.53125 C 454.59302 368.96334 455.75813 367.49483 456.46875 365.84375 z M 515.3125 371.28125 C 515.31513 371.27978 515.34111 371.28229 515.34375 371.28125 C 515.3497 371.28027 515.36864 371.28172 515.375 371.28125 C 515.4016 371.28093 515.4426 371.28028 515.46875 371.28125 C 515.47495 371.28127 515.49427 371.28158 515.5 371.28125 C 515.74083 371.27604 515.97483 371.28873 516.21875 371.3125 C 516.3666 371.32687 516.51397 371.34236 516.65625 371.375 C 521.90624 372.83281 520.87334 379.1622 515.46875 379.1875 C 513.34963 379.52055 510.23094 379.01798 510.28125 377.0625 C 510.02825 374.56372 511.23742 371.44762 515.25 371.3125 C 515.25495 371.31236 515.27622 371.31282 515.28125 371.3125 C 515.28383 371.31113 515.30991 371.31417 515.3125 371.3125 C 515.31511 371.31072 515.30988 371.28297 515.3125 371.28125 z M 488.40625 372.875 C 490.92895 373.66805 493.32629 374.96178 495.75 376.1875 C 494.56364 378.60795 491.42848 379.62099 488.65625 380.8125 C 488.0177 382.97176 491.54152 384.29453 493.71875 385.1875 C 494.16838 385.26313 494.54045 385.41928 494.8125 385.59375 C 494.86421 385.62824 494.94646 385.67842 495 385.71875 C 495.00821 385.72534 495.02398 385.74363 495.03125 385.75 C 495.05553 385.7721 495.10264 385.82085 495.125 385.84375 C 495.21917 385.94406 495.31483 386.07517 495.375 386.1875 C 495.67764 386.78083 495.53875 387.51658 495.15625 388.0625 C 495.12974 388.09909 495.09125 388.15271 495.0625 388.1875 C 494.76969 391.13897 490.7802 392.96945 486.75 391.75 C 486.66973 391.72569 486.58029 391.71419 486.5 391.6875 C 481.88934 389.97391 476.96396 387.75759 473.46875 384.71875 C 469.04637 381.27554 470.84298 375.40999 476.59375 375.59375 C 481.39103 376.9722 486.16507 375.62709 488.40625 372.875 z M 538.09375 376.3125 C 538.0776 376.31767 538.04654 376.34054 538.03125 376.34375 C 538.0276 376.34477 538.00397 376.34245 538 376.34375 C 537.98304 376.35004 537.95061 376.37143 537.9375 376.375 C 537.93472 376.375 537.90953 376.37511 537.90625 376.375 C 537.21143 377.85641 537.0671 379.82288 537.75 381.34375 C 539.89488 382.55303 542.80465 382.95693 544.9375 384.03125 C 544.8318 382.23682 545.22134 380.42491 545.1875 378.6875 C 542.74102 378.25023 540.60142 376.11634 538.15625 376.3125 C 538.15117 376.31346 538.13025 376.31113 538.125 376.3125 C 538.11965 376.31412 538.09913 376.31078 538.09375 376.3125 z M 482.09375 379.84375 C 482.04729 379.85007 481.98448 379.8706 481.9375 379.875 C 477.85713 380.25659 476.61386 385.29651 480.96875 387.4375 C 480.97293 387.43933 480.99466 387.43473 481 387.4375 C 481.00573 387.44055 481.02592 387.46609 481.03125 387.46875 C 481.13923 387.50747 481.25913 387.52877 481.375 387.5625 C 481.68875 387.65381 481.99959 387.73144 482.3125 387.78125 C 486.28081 388.39079 488.0676 385.53368 488.28125 383.03125 C 488.69244 381.11883 485.70668 380.03348 483.5625 379.96875 C 483.09009 379.88211 482.63843 379.83006 482.21875 379.84375 C 482.17032 379.84533 482.14021 379.83743 482.09375 379.84375 z M 507.90625 380.90625 C 510.86307 381.841 513.92219 382.46318 517 383.03125 C 513.7402 384.29118 511.46346 386.77385 511.3125 389.5625 C 509.80874 389.34279 507.52269 388.49569 505.75 388.0625 C 505.2746 388.02825 504.88876 387.92128 504.59375 387.78125 C 504.47409 387.72205 504.34153 387.63546 504.25 387.5625 C 504.24187 387.55436 504.2238 387.53576 504.21875 387.53125 C 504.17755 387.49228 504.12596 387.44159 504.09375 387.40625 C 504.03235 387.33603 503.95135 387.23502 503.90625 387.15625 C 503.89793 387.13506 503.88246 387.08396 503.875 387.0625 C 503.86109 387.03405 503.82492 386.96639 503.8125 386.9375 C 503.68217 386.48576 503.8213 385.93897 504.125 385.46875 C 504.51478 383.52517 506.10087 382.15185 507.90625 380.90625 z M 534.1875 387.90625 C 536.95608 388.4146 540.0744 387.78672 542.53125 389.125 C 542.55991 389.24649 542.59281 389.38125 542.625 389.5 C 541.63413 391.88893 538.74388 393.22249 536.21875 394.6875 C 535.84279 396.90759 539.51292 397.81109 541.78125 398.4375 C 542.64152 398.47784 543.19407 398.78669 543.5 399.1875 C 543.55231 399.25899 543.61858 399.36004 543.65625 399.4375 C 543.67655 399.48868 543.70311 399.57771 543.71875 399.625 C 543.88455 400.15913 543.77979 400.7968 543.46875 401.28125 C 543.53074 404.24655 539.80332 406.51037 535.65625 405.78125 C 535.57365 405.76671 535.48915 405.76694 535.40625 405.75 C 530.62386 404.59966 525.45827 403.00565 521.625 400.40625 C 516.82286 397.51616 517.89352 391.4735 523.625 390.96875 C 527.93806 391.66487 531.97459 390.27712 534.1875 387.90625 z M 502.34375 390.53125 C 504.54309 391.46192 507.46719 391.68543 509.6875 392.75 C 510.46964 394.22228 510.43893 396.19457 509.84375 397.71875 C 507.32927 398.24533 504.98659 396.15803 502.4375 395.875 C 502.28864 394.14364 502.56809 392.31472 502.34375 390.53125 z M 530.5 394.4375 C 525.56698 394.54981 524.41385 400.44847 529.375 402.1875 C 529.5148 402.22948 529.66592 402.25708 529.8125 402.28125 C 530.13492 402.33442 530.46462 402.36295 530.78125 402.375 C 534.79396 402.50597 536.18067 399.44752 536.09375 396.9375 C 536.13455 396.49524 535.9959 396.10062 535.75 395.78125 C 534.96493 394.8041 533.04321 394.38236 531.46875 394.4375 C 531.39878 394.43995 531.31738 394.43179 531.25 394.4375 C 531.24158 394.43821 531.22679 394.43641 531.21875 394.4375 C 531.17219 394.44568 531.11257 394.46424 531.0625 394.46875 C 530.87285 394.45705 530.67975 394.43341 530.5 394.4375 z M 564.53125 394.65625 C 564.54741 394.65276 564.57793 394.65893 564.59375 394.65625 C 564.60142 394.65536 564.61766 394.65652 564.625 394.65625 C 565.50526 394.6244 566.47928 394.87975 567.53125 395.46875 C 567.80689 395.62503 568.08191 395.80455 568.34375 396 C 568.46279 396.08883 568.58266 396.17968 568.6875 396.28125 C 572.42482 400.24612 568.29354 405.11969 563.65625 402.34375 C 561.67069 401.53177 559.22599 399.49082 560.28125 397.84375 C 561.01326 396.30159 562.47769 394.83889 564.4375 394.6875 C 564.44471 394.68694 564.46117 394.68861 564.46875 394.6875 C 564.48445 394.68453 564.51509 394.65974 564.53125 394.65625 z M 552.84375 400.46875 C 552.8465 400.46861 552.87182 400.46932 552.875 400.46875 C 554.65495 401.85353 556.31259 403.34995 557.5 405.21875 C 557.47471 405.79994 557.51576 406.34491 557.625 406.84375 C 556.42509 407.31816 555.40596 408.05403 554.71875 409.0625 C 553.54585 408.09612 552.01123 406.1945 550.71875 404.90625 C 550.32973 404.63086 550.05493 404.33501 549.875 404.0625 C 549.77337 403.90299 549.69634 403.71589 549.65625 403.5625 C 549.6563 403.55984 549.65605 403.53427 549.65625 403.53125 C 549.64819 403.48931 549.63148 403.41536 549.625 403.375 C 549.62475 403.37225 549.6249 403.35011 549.625 403.34375 C 549.62429 403.30371 549.62455 403.25101 549.625 403.21875 C 549.62605 403.18876 549.62329 403.12767 549.625 403.09375 C 549.63192 403.05963 549.64976 402.99743 549.65625 402.96875 C 549.77142 402.50407 550.14401 402.09324 550.65625 401.84375 C 551.25749 401.18793 552.002 400.75826 552.84375 400.46875 z M 546.53125 405.25 C 547.93126 407.18473 550.30759 408.87737 551.65625 410.9375 C 551.56337 412.60205 550.54824 414.28526 549.25 415.28125 C 546.82604 414.43022 545.87823 411.43665 543.84375 409.875 C 544.61259 408.31659 545.80006 406.89207 546.53125 405.25 z M 558.21875 415.90625 C 558.2798 415.89797 558.34452 415.91193 558.40625 415.90625 C 558.42206 415.90479 558.4532 415.90628 558.46875 415.90625 C 558.492 415.9068 558.53905 415.90578 558.5625 415.90625 C 558.57039 415.90619 558.58576 415.90663 558.59375 415.90625 C 559.94859 415.84097 561.44697 416.41396 562.8125 417.75 C 564.01982 419.72606 565.62422 421.25659 567.34375 422.28125 C 568.09569 424.2197 569.10995 426.0391 570.5625 427.59375 C 572.0135 428.7333 573.0654 430.02222 573.8125 431.4375 C 571.99935 431.23664 570.06309 430.4063 568.1875 429.75 C 566.25703 430.90907 567.93724 434.27619 568.9375 436.40625 C 569.44587 437.05911 569.5827 437.64283 569.5 438.125 C 569.4934 438.1593 569.47751 438.21007 569.46875 438.25 C 569.46713 438.25637 569.47055 438.27529 569.46875 438.28125 C 569.46337 438.29791 569.44512 438.32486 569.4375 438.34375 C 569.4168 438.39214 569.39242 438.46207 569.375 438.5 C 569.36688 438.51687 569.35209 438.54673 569.34375 438.5625 C 569.05854 439.0778 568.47425 439.41695 567.875 439.5 C 565.66361 441.47651 561.51967 440.15474 559.375 436.53125 C 559.33229 436.45906 559.29109 436.35521 559.25 436.28125 C 557.01176 431.90121 554.86405 426.97719 554.34375 422.375 C 553.75131 418.85413 555.67498 416.25124 558.21875 415.90625 z M 583.09375 419.09375 C 581.54145 419.54531 580.01192 420.70291 579.3125 422.1875 C 579.78981 424.60307 581.3655 427.08763 581.9375 429.40625 C 583.2313 428.15839 584.85894 427.28119 586.15625 426.125 C 584.85611 423.91418 585.1152 420.79193 583.1875 419.09375 C 583.18388 419.09403 583.16026 419.09387 583.15625 419.09375 C 583.15409 419.09353 583.13174 419.09365 583.125 419.09375 C 583.12099 419.09365 583.09737 419.09343 583.09375 419.09375 z M 561.09375 423.5625 C 561.02983 423.56507 560.96948 423.58796 560.90625 423.59375 C 560.90212 423.59387 560.87884 423.59384 560.875 423.59375 C 560.86421 423.59303 560.82482 423.5931 560.8125 423.59375 C 558.54077 423.86981 556.7997 426.24345 558.03125 429.40625 C 558.07925 429.5147 558.13178 429.64196 558.1875 429.75 C 558.19009 429.75539 558.216 429.77546 558.21875 429.78125 C 558.22144 429.78657 558.21634 429.80853 558.21875 429.8125 C 558.38816 430.09191 558.61563 430.34548 558.8125 430.59375 C 561.32401 433.72606 564.52552 432.79294 566.375 431.09375 C 567.97105 429.96282 566.5047 427.15375 564.96875 425.65625 C 563.82877 424.14687 562.39348 423.51018 561.09375 423.5625 z M 503.625 426.1875 C 509.16384 426.30094 517.25093 425.96295 518.09375 433.09375 C 521.26038 439.97843 526.64219 445.56148 533.1875 449.3125 C 533.8298 454.5814 526.9831 457.20398 528.40625 462.5 C 526.93032 467.95477 522.52872 471.76939 520.375 476.96875 C 518.20354 480.79884 513.18307 482.031 509.84375 479.25 C 504.97716 478.24173 498.58354 480.83891 495.59375 475.3125 C 485.5306 469.87957 479.95959 457.95387 481.28125 446.625 C 480.48088 443.15085 484.3588 443.09768 483.25 440.46875 C 483.49057 434.68571 491.58018 434.542 493.71875 429.75 C 497.52423 429.92623 500.66923 427.8053 503.625 426.1875 z M 570.71875 449.75 C 570.93375 449.74139 571.1504 449.78994 571.375 449.84375 C 572.77573 449.6458 574.11227 450.12273 575.40625 450.875 C 575.44256 451.57343 575.50214 452.2635 575.59375 452.9375 C 576.57269 455.34973 577.20637 457.93759 577.34375 460.53125 C 575.14768 458.31196 572.35748 457.25263 569.90625 457.96875 C 569.6144 456.47731 569.64848 454.06595 569.46875 452.25 C 569.27838 451.55234 569.31508 450.98593 569.46875 450.59375 C 569.48329 450.55869 569.51452 450.50142 569.53125 450.46875 C 569.55391 450.42663 569.59707 450.35436 569.625 450.3125 C 569.64777 450.28187 569.69158 450.22023 569.71875 450.1875 C 569.72474 450.18126 569.74388 450.16233 569.75 450.15625 C 569.75312 450.15328 569.77501 450.13135 569.78125 450.125 C 569.7853 450.12147 569.80776 450.09762 569.8125 450.09375 C 569.84396 450.06917 569.87984 450.04969 569.90625 450.03125 C 569.93842 450.00976 569.99082 449.96046 570.03125 449.9375 C 570.03761 449.93406 570.05669 449.94044 570.0625 449.9375 C 570.21137 449.86565 570.38771 449.80373 570.5625 449.78125 C 570.6108 449.77503 570.66914 449.75199 570.71875 449.75 z M 566 449.8125 C 565.85204 452.19605 566.61109 455.05223 566.34375 457.5 C 565.21453 458.72646 563.38533 459.36808 561.75 459.3125 C 560.41873 457.11533 561.57903 454.21728 561 451.71875 C 562.58382 451.00369 564.39209 450.61606 566 449.8125 z M 583.5 452.25 C 583.51593 452.24667 583.54679 452.25266 583.5625 452.25 C 583.57022 452.24904 583.58622 452.25045 583.59375 452.25 C 585.46038 452.1371 587.41039 452.99237 588.4375 455.625 C 588.55108 455.9208 588.67196 456.21395 588.75 456.53125 C 588.75708 456.55329 588.77504 456.60182 588.78125 456.625 C 588.79996 456.74312 588.80017 456.89121 588.8125 457 C 589.17978 462.43623 582.88015 463.55858 581.0625 458.46875 C 580.20396 456.87534 579.68431 454.37894 580.65625 453.28125 C 580.83217 453.09268 581.06746 452.93305 581.34375 452.84375 C 581.96531 452.55171 582.68378 452.34859 583.40625 452.28125 C 583.41375 452.28055 583.4298 452.28239 583.4375 452.28125 C 583.45319 452.27834 583.48407 452.25333 583.5 452.25 z M 565.3125 465.5625 C 565.37795 465.55446 565.43478 465.56767 565.5 465.5625 C 565.59276 465.55515 565.68912 465.56419 565.78125 465.5625 C 568.40881 465.51408 570.70911 467.69905 570.4375 471.375 C 569.39906 474.49165 569.55107 477.63622 570.53125 480.09375 C 569.47409 483.03611 568.4832 486.01592 567.28125 488.875 C 566.14323 487.3204 565.4701 485.15895 564.71875 483.1875 C 562.58808 482.45924 561.10822 485.92451 560.125 488.0625 C 560.01666 488.57465 559.81882 488.97454 559.59375 489.25 C 559.52023 489.33661 559.42533 489.43507 559.34375 489.5 C 559.31495 489.52199 559.25308 489.56982 559.21875 489.59375 C 559.16745 489.62528 559.0845 489.66308 559.03125 489.6875 C 559.02456 489.69041 559.00739 489.68462 559 489.6875 C 558.95263 489.70448 558.885 489.73763 558.84375 489.75 C 558.76094 489.77307 558.64731 489.80373 558.5625 489.8125 C 558.03396 489.85749 557.46882 489.64661 557.0625 489.28125 C 554.12585 488.86532 552.45685 484.81944 553.84375 480.84375 C 553.87139 480.76456 553.90743 480.67284 553.9375 480.59375 C 555.84235 476.05876 558.25519 471.24009 561.4375 467.875 C 562.6016 466.50235 563.98166 465.72593 565.3125 465.5625 z M 561.875 472.625 C 561.86258 472.62823 561.82538 472.65331 561.8125 472.65625 C 561.80578 472.65747 561.78837 472.6554 561.78125 472.65625 C 560.55245 472.8022 559.31303 473.6113 558.4375 475.21875 C 558.38955 475.31717 558.32567 475.42794 558.28125 475.53125 C 558.27859 475.53774 558.28398 475.55456 558.28125 475.5625 C 558.27588 475.57939 558.25444 475.6118 558.25 475.625 C 558.14566 475.93466 558.09406 476.25194 558.03125 476.5625 C 557.25634 480.50186 560.03995 482.40065 562.53125 482.71875 C 564.4248 483.20953 565.62691 480.26459 565.78125 478.125 C 566.55709 474.70704 564.30503 472.45909 561.9375 472.625 C 561.9304 472.6255 561.91296 472.62405 561.90625 472.625 C 561.89982 472.62629 561.88127 472.62349 561.875 472.625 z M 578.5 486.65625 C 578.48993 486.6597 578.47907 486.68461 578.46875 486.6875 C 578.46343 486.68857 578.44304 486.68697 578.4375 486.6875 C 578.17467 486.71271 577.90796 486.77667 577.65625 486.84375 C 576.11758 488.7661 575.24724 491.5678 573.84375 493.5 C 575.63178 493.68438 577.34228 494.3476 579.0625 494.59375 C 579.91413 492.1745 582.47613 490.34968 582.53125 487.78125 C 581.42754 487.02584 579.94394 486.55957 578.5625 486.65625 C 578.55693 486.65664 578.53659 486.65529 578.53125 486.65625 C 578.52608 486.65762 578.50507 486.65462 578.5 486.65625 z M 526.71875 514.65625 C 526.75063 514.65067 526.78102 514.65967 526.8125 514.65625 C 527.279 514.60553 527.68487 514.81822 527.9375 515.375 C 529.10718 516.09622 529.38324 516.98033 529.15625 517.75 C 528.60169 519.52251 525.39292 520.71184 524.46875 517.9375 C 524.38732 517.82949 524.33814 517.69413 524.3125 517.5625 C 524.14004 516.51747 525.54981 514.86087 526.71875 514.65625 z " id="path6783" style="fill:#000000;fill-opacity:1;fill-rule:nonzero;stroke:none;stroke-width:1px;stroke-linecap:butt;stroke-linejoin:miter;stroke-opacity:1"/>
    </g>
  </g>
  <g id="layer2" inkscape:groupmode="layer" inkscape:label="jytd"/>
</svg>
